<svg width="80" height="40" viewBox="0 0 80 40" fill="none" xmlns="http://www.w3.org/2000/svg">
<path d="M12.3253 12.5294C13.8816 10.8508 16.1252 10 18.9918 10H26.8006V14.8328H18.9918C17.4877 14.8328 16.4039 15.2113 15.7693 15.9553C15.1051 16.734 14.7678 18.0998 14.7678 20.0138C14.7678 21.9112 15.1006 23.2685 15.7583 24.0479C16.3833 24.79 17.4703 25.1665 18.9918 25.1665H26.8006L23.1958 30H18.9918C16.1245 30 13.8816 29.1492 12.326 27.4693C10.7826 25.8069 10 23.2981 10 20.0138C10 16.7109 10.7826 14.1924 12.326 12.5287L12.3253 12.5294ZM55.5028 17.7522H50.7344V10H55.5028V17.7522ZM69.1202 30H63.7783L60.7887 24.1142C60.5648 23.6772 60.3511 23.3303 60.1535 23.0838C59.999 22.8907 59.8053 22.7427 59.5595 22.6307C59.2866 22.5065 58.9223 22.4248 58.4788 22.3862C57.9633 22.3437 57.2804 22.3218 56.4496 22.3218H55.5035V30H50.735V22.3443L55.6547 17.7876H56.4496C57.1936 17.7876 57.8056 17.7657 58.271 17.7232C58.6616 17.6866 58.9763 17.61 59.2074 17.4916C59.4211 17.3847 59.5974 17.2335 59.7487 17.032C59.9405 16.7752 60.1535 16.4097 60.3826 15.9475L63.3734 10H68.5725L65.1401 16.893C64.698 17.7689 64.2198 18.511 63.7146 19.1006C63.508 19.3416 63.2801 19.5635 63.0336 19.7635C63.3378 19.9668 63.6204 20.2008 63.8767 20.4618C64.1928 20.781 64.4946 21.1646 64.7746 21.5997C65.0391 22.0129 65.3152 22.4994 65.5932 23.0446L69.1202 30ZM45.8629 12.5171C47.3863 14.1725 48.1593 16.6948 48.1593 20.0138C48.1593 23.3149 47.387 25.8275 45.8629 27.4822C44.3247 29.1524 42.0811 29.9994 39.1952 29.9994H31.8414C31.1006 29.9994 30.5001 29.3899 30.5001 28.6388V19.3059L35.2673 14.8888V25.1672H39.1952C40.6961 25.1672 41.7735 24.7874 42.399 24.0377C43.0574 23.2486 43.3915 21.8854 43.3915 19.9874C43.3915 18.0888 43.0619 16.7295 42.4119 15.9482C41.7953 15.2093 40.7128 14.8335 39.1952 14.8335H35.2673V14.8888H30.5007V10.0006H39.1958C42.0811 10.0006 44.3234 10.847 45.8629 12.5171Z" fill="white"/>
</svg>
