<svg width="32" height="36" viewBox="0 0 32 36" fill="none" xmlns="http://www.w3.org/2000/svg">
<g clip-path="url(#clip0)">
<path fill-rule="evenodd" clip-rule="evenodd" d="M28.2063 0H2.81732C0.75946 0 0 0.75946 0 2.81828V27.6612C0 27.8942 0.00939539 28.1106 0.0299766 28.3111C0.0338821 28.3486 0.0375234 28.3859 0.0411594 28.4232C0.0811413 28.8335 0.120489 29.2373 0.5036 29.6918C0.544443 29.7403 0.971152 30.0579 0.971152 30.0579C1.01233 30.0781 1.05116 30.0973 1.08866 30.1159L1.08868 30.1159C1.26021 30.2009 1.40385 30.272 1.61626 30.3575L14.1181 35.5954C14.7671 35.8929 15.0385 36.0088 15.5099 35.9995V35.9996H15.5118H15.5136V35.9995C15.985 36.0088 16.2564 35.8929 16.9055 35.5954L29.4073 30.3575C29.6194 30.2722 29.7629 30.2011 29.934 30.1163L29.9341 30.1163L29.9342 30.1162L29.9343 30.1162C29.972 30.0975 30.011 30.0782 30.0525 30.0579C30.0525 30.0579 30.4792 29.7403 30.5199 29.6918C30.9031 29.2373 30.9424 28.8335 30.9824 28.4232L30.9886 28.36L30.9936 28.3111C31.0142 28.1106 31.0236 27.8942 31.0236 27.6612V2.81828C31.0236 0.75946 30.2641 0 28.2063 0ZM26.5057 24.9763L26.5 25.0336L26.4943 25.0966L26.4828 25.1539L26.4656 25.2112L26.4545 25.2627L26.4373 25.3201L26.4144 25.3717L26.3914 25.4176L26.3689 25.4691L26.3402 25.5149L26.3116 25.5608L26.2775 25.6066L26.2488 25.6524L26.2148 25.6925L26.1747 25.7327L26.1406 25.767L26.0949 25.8072L26.055 25.8416L26.0092 25.876L25.9637 25.9042L25.9182 25.9386L25.8666 25.9672L25.8154 25.9902L25.7642 26.0188L25.7068 26.0418L25.6499 26.0647L25.5929 26.0818L25.536 26.0991L25.4844 26.1162L25.4274 26.1277L25.3762 26.1392L25.325 26.1506L25.2677 26.1621L25.2106 26.1678L25.1594 26.1736L25.1021 26.1793L25.0395 26.1851L24.9825 26.1908H24.9255H24.8628H24.7998H24.7428L24.6858 26.1851H24.6232L24.5662 26.1793L24.5089 26.1736L24.4462 26.1678L24.3892 26.1564L24.3323 26.1506L24.275 26.1392L24.218 26.1277L24.161 26.1162L24.1041 26.1048L24.0468 26.0877L23.9955 26.0762L23.9386 26.059L23.8816 26.0418L23.83 26.0188L23.7731 26.0016L23.7218 25.9845L23.6648 25.9615L23.6133 25.9386L23.562 25.9157L23.5108 25.8874L23.4593 25.8645L23.408 25.8358L23.3625 25.8072L23.3109 25.7785L23.2654 25.7499L23.2196 25.7212L23.1741 25.6868L23.1286 25.6524L23.0827 25.6181L23.0372 25.5837L22.9971 25.5493L22.9516 25.5092L22.986 25.4634L23.0257 25.4232L23.0601 25.3773L23.0999 25.3315L23.1343 25.2914L23.1683 25.2456L23.2085 25.1997L23.2425 25.1596L23.2826 25.1138L23.3167 25.0737L23.3567 25.0279L23.3908 24.982L23.4252 24.9419L23.4649 24.8961L23.4993 24.8502L23.5391 24.8101L23.5735 24.7643L23.619 24.7986L23.6702 24.833L23.7161 24.8674L23.7673 24.9018L23.8132 24.9304L23.8644 24.9648L23.9099 24.9935L23.9615 25.0163L24.007 25.045L24.0582 25.068L24.1098 25.0909L24.161 25.1138L24.2123 25.131L24.2638 25.1539L24.3208 25.1711L24.3778 25.1883L24.429 25.2055L24.4863 25.217L24.5433 25.2284L24.6002 25.2399L24.6629 25.2456L24.7202 25.2571H24.7772L24.8399 25.2627H24.8969H24.9653L25.028 25.2571L25.0853 25.2456L25.1365 25.2341L25.1878 25.2227L25.2336 25.2055L25.2734 25.1826L25.3192 25.1482L25.3532 25.1081L25.3762 25.0622L25.3934 25.0107L25.3991 24.9533V24.9419L25.3934 24.8731L25.3705 24.8158L25.3418 24.7757L25.302 24.7413L25.2562 24.7069L25.2106 24.684L25.1594 24.6611L25.1021 24.6382L25.0337 24.6096L24.9939 24.5981L24.9485 24.5866L24.8969 24.5694L24.8456 24.5579L24.7887 24.5407L24.7313 24.5293L24.6687 24.5121L24.6117 24.5007L24.549 24.4835L24.492 24.472L24.4347 24.4548L24.3778 24.4433L24.3208 24.4261L24.2692 24.409L24.2123 24.3975L24.161 24.3803L24.1098 24.3631L24.0582 24.3459L23.9955 24.323L23.9386 24.3L23.8816 24.2771L23.8243 24.2542L23.7731 24.2256L23.7161 24.1969L23.6702 24.1683L23.619 24.1397L23.5735 24.1053L23.5277 24.0766L23.4879 24.0422L23.4478 24.0021L23.408 23.962L23.3736 23.9218L23.3396 23.8818L23.3109 23.8417L23.2826 23.7958L23.254 23.7443L23.231 23.7045L23.2138 23.6586L23.197 23.607L23.1798 23.5612L23.1683 23.5039L23.1569 23.4523L23.1511 23.395L23.1454 23.3377L23.1397 23.2747V23.2117V23.2002V23.1429L23.1454 23.0856L23.1511 23.034L23.1569 22.9767L23.1683 22.9252L23.1798 22.8736L23.197 22.822L23.2085 22.7704L23.231 22.7189L23.254 22.6673L23.2768 22.6158L23.3052 22.5641L23.3338 22.5126L23.3679 22.4667L23.4023 22.4209L23.4421 22.375L23.4821 22.335L23.522 22.2891L23.5678 22.2489L23.6075 22.2203L23.6534 22.1859L23.6989 22.1515L23.7444 22.1229L23.796 22.0943L23.8472 22.0713L23.8984 22.0427L23.95 22.0198L24.007 22.0025L24.0639 21.9797L24.1155 21.9625L24.161 21.951L24.2123 21.9395L24.2638 21.9281L24.3208 21.9166L24.3721 21.9051L24.429 21.8994L24.4863 21.8937L24.5433 21.8879L24.6002 21.8822H24.6572H24.7202H24.783H24.8456L24.9083 21.8879L24.971 21.8937H25.028L25.091 21.8994L25.1479 21.9109L25.2106 21.9166L25.2677 21.9281L25.3192 21.9395L25.3762 21.951L25.4331 21.9625L25.4844 21.9739L25.5417 21.9911L25.5929 22.0083L25.6442 22.0198L25.7015 22.0427L25.7527 22.0599L25.8039 22.0828L25.8552 22.1057L25.9124 22.1286L25.9637 22.1573L26.0092 22.1802L26.0608 22.2089L26.1121 22.2375L26.1576 22.2662L26.2091 22.3006L26.2547 22.3292L26.3005 22.3636L26.346 22.398L26.3914 22.4323L26.3574 22.4782L26.3288 22.524L26.2947 22.5699L26.2603 22.6158L26.2263 22.6673L26.1976 22.7131L26.1633 22.759L26.1292 22.8048L26.1006 22.8507L26.0665 22.8965L26.0322 22.9424L26.0035 22.9882L25.9695 23.0398L25.935 23.0856L25.901 23.1314L25.8724 23.1773L25.8383 23.2231L25.7925 23.1888L25.7413 23.1601L25.6957 23.1314L25.6499 23.0971L25.5987 23.0742L25.5528 23.0455L25.5016 23.0225L25.4561 22.9996L25.4045 22.9767L25.359 22.9538L25.3078 22.9366L25.262 22.9137L25.1992 22.8965L25.1423 22.8793L25.0853 22.8622L25.028 22.8507L24.971 22.8392L24.9141 22.8277L24.8571 22.822L24.7998 22.8163L24.7486 22.8105H24.6916H24.6232L24.5605 22.822L24.5031 22.8335L24.452 22.8449L24.4064 22.8678L24.3663 22.8907L24.315 22.9366L24.2807 22.9882L24.2582 23.0398L24.2523 23.0971V23.1086L24.2582 23.183L24.2864 23.246L24.3094 23.2804L24.3491 23.3206L24.4007 23.3492L24.4462 23.3778L24.5031 23.4008L24.5662 23.4237L24.6346 23.4466L24.6801 23.4581L24.7256 23.4752L24.7772 23.4867L24.8284 23.5039L24.8854 23.5154L24.9485 23.5326L25.0112 23.5497L25.0739 23.567L25.1365 23.5784L25.1934 23.5956L25.2562 23.6128L25.3135 23.6242L25.3705 23.6414L25.4274 23.6586L25.4786 23.6758L25.536 23.693L25.5872 23.7102L25.6384 23.7274L25.7015 23.75L25.7584 23.7787L25.8154 23.8015L25.8724 23.8302L25.924 23.8589L25.9752 23.8875L26.0207 23.9161L26.0665 23.9505L26.1121 23.9792L26.1576 24.0193L26.2034 24.0594L26.2432 24.1053L26.2832 24.1454L26.3173 24.1912L26.3517 24.2428L26.38 24.2886L26.4087 24.3402L26.4316 24.3861L26.4488 24.4376L26.4656 24.4892L26.4771 24.5407L26.4885 24.5981L26.5 24.6554L26.5057 24.7127L26.5115 24.7757V24.8387V24.8502V24.9132L26.5057 24.9763ZM22.5049 26.122H22.4477H22.3907H22.3337H22.2768H22.2195H22.1625H22.1056H22.0486H21.9855H21.9286H21.8716H21.8147H21.7573H21.7004H21.6434H21.5864H21.5291H21.4722H21.4152H21.3583H21.3012H21.244H21.187H21.1301H21.0731H21.0157H20.9588H20.9018H20.8391H20.7819H20.7248H20.6679H20.6109H20.5537H20.4967H20.4397H20.3827H20.3254H20.2685H20.2115H20.1545H20.0972H20.0403H19.9833H19.9263H19.8691H19.812H19.7493H19.6924H19.6354H19.5781H19.5212H19.4641H19.4073H19.35H19.293H19.236V26.0647V26.0074V25.9501V25.8931V25.8358V25.7785V25.7212V25.664V25.6066V25.5493V25.492V25.4347V25.3773V25.3201V25.2627V25.2055V25.1482V25.0909V25.0393V24.982V24.9247V24.8674V24.8101V24.7528V24.6955V24.6382V24.5808V24.5235V24.4663V24.409V24.3517V24.2943V24.2371V24.1797V24.1224V24.0651V24.0078V23.9505V23.8933V23.8359V23.7787V23.7216V23.6644V23.607V23.5497V23.4924V23.4352V23.3778V23.3206V23.2632V23.2059V23.1486V23.0913V23.034V22.9824V22.9252V22.8678V22.8105V22.7532V22.6959V22.6386V22.5813V22.524V22.4667V22.4094V22.3521V22.2948V22.2375V22.1802V22.1229V22.0656V22.0083V21.951H19.293H19.35H19.4073H19.4641H19.5212H19.5781H19.6354H19.6924H19.7493H19.8064H19.8636H19.9206H19.9775H20.0345H20.0861H20.1431H20.2H20.257H20.3143H20.3713H20.4282H20.4852H20.5425H20.5994H20.6564H20.7134H20.7707H20.8277H20.8846H20.9416H20.9989H21.0559H21.1128H21.1698H21.2268H21.2841H21.3411H21.398H21.455H21.5123H21.5692H21.6262H21.6831H21.7348H21.7917H21.8487H21.9057H21.963H22.0199H22.0769H22.1338H22.1912H22.2481H22.3051H22.3621H22.4193H22.4763H22.5333V22.0083V22.0599V22.1171V22.1745V22.2317V22.2833V22.3407V22.398V22.4495V22.5068V22.5641V22.6158V22.673V22.7303V22.7876V22.8392V22.8965H22.4763H22.4193H22.3621H22.3051H22.2481H22.1912H22.1396H22.0826H22.0257H21.9687H21.9114H21.8544H21.7974H21.7405H21.6831H21.6262H21.5692H21.5123H21.455H21.4038H21.3467H21.2898H21.2325H21.1756H21.1186H21.0616H21.0043H20.9473H20.8904H20.8334H20.7761H20.7191H20.6679H20.6109H20.5537H20.4967H20.4397H20.3827H20.3254V22.9538V23.0111V23.0684V23.1257V23.183V23.2346V23.2919V23.3492V23.4065V23.4638V23.5211V23.5784H20.3827H20.4397H20.4967H20.5537H20.6109H20.6679H20.7248H20.7819H20.8334H20.8904H20.9473H21.0043H21.0616H21.1186H21.1756H21.2325H21.2898H21.3467H21.4038H21.4607H21.518H21.5749H21.6319H21.689H21.7462H21.8032H21.8544H21.9114H21.9687H22.0257H22.0826H22.1396H22.1968H22.2539H22.3108V23.6357V23.6873V23.7443V23.8015V23.8531V23.9104V23.9677V24.0193V24.0766V24.1339V24.1912V24.2428V24.3V24.3574V24.409V24.4663H22.2539H22.1968H22.1396H22.0826H22.0257H21.9687H21.9114H21.8544H21.8032H21.7462H21.689H21.6319H21.5749H21.518H21.4607H21.4038H21.3467H21.2898H21.2325H21.1756H21.1186H21.0616H21.0043H20.9473H20.8904H20.8334H20.7819H20.7248H20.6679H20.6109H20.5537H20.4967H20.4397H20.3827H20.3254V24.5235V24.5866V24.6439V24.7012V24.7643V24.8216V24.8789V24.9419V24.9992V25.0565V25.1195V25.1768H20.3827H20.4397H20.4967H20.5537H20.6109H20.6679H20.7248H20.7819H20.8391H20.9018H20.9588H21.0157H21.0731H21.1301H21.187H21.244H21.3012H21.3583H21.4152H21.4722H21.5291H21.5864H21.6434H21.7004H21.7573H21.8147H21.8716H21.9286H21.9855H22.0486H22.1056H22.1625H22.2195H22.2768H22.3337H22.3907H22.4477H22.5049H22.5619V25.2341V25.2857V25.343V25.4003V25.4576V25.5092V25.5665V25.6237V25.6754V25.7327V25.7899V25.8416V25.8985V25.9558V26.0131V26.0647V26.122H22.5049ZM18.3367 26.122H18.2797H18.2227H18.1597H18.1028H18.0458H17.9888H17.9315H17.8745H17.8118H17.7549H17.6979H17.6406H17.5836H17.5267H17.464H17.4067H17.3497H17.2927V26.0647V26.0074V25.9501V25.8928V25.8351V25.7779V25.7205V25.6632V25.6059V25.5486V25.4913V25.4337V25.3764V25.3191V25.2618V25.2045V25.1468V25.0895V25.0322V24.9749V24.9176V24.8603V24.8027V24.7454V24.6881V24.6307V24.5735V24.5161V24.4585V24.4011V24.3439V24.2866V24.2293V24.172V24.1144V24.0571V23.9997V23.9425V23.8851V23.8275V23.7702V23.7129V23.6556L17.2641 23.7014L17.2301 23.7533L17.2014 23.7992L17.1674 23.8451L17.1387 23.8966L17.1043 23.9425L17.076 23.9883L17.0473 24.0402L17.0133 24.086L16.9846 24.1319L16.9503 24.1778L16.922 24.2297L16.8876 24.2755L16.8593 24.3213L16.8306 24.3729L16.7962 24.419L16.7679 24.4649L16.7335 24.5165L16.7052 24.5623L16.6709 24.6082L16.6425 24.6601L16.6138 24.706L16.5795 24.7518L16.5512 24.8034L16.5168 24.8495L16.4885 24.8954L16.4541 24.9412L16.4254 24.9928L16.3971 25.0389L16.3628 25.0848L16.3345 25.1364L16.3001 25.1822L16.2714 25.228L16.2374 25.28L16.2087 25.3258H16.1861L16.1518 25.2743L16.1231 25.228L16.089 25.1765L16.0604 25.1306L16.0263 25.0791L15.9977 25.0329L15.9637 24.9813L15.935 24.9354L15.9006 24.8839L15.8723 24.8381L15.8379 24.7861L15.8096 24.7403L15.7753 24.6887L15.7466 24.6429L15.7125 24.591L15.6839 24.5452L15.6498 24.4936L15.6155 24.4477L15.5868 24.3958L15.5528 24.35L15.5241 24.2984L15.4901 24.2526L15.4614 24.2006L15.4274 24.1548L15.3987 24.1032L15.3643 24.0574L15.336 24.0058L15.3016 23.9596L15.2733 23.9081L15.2389 23.8622L15.2103 23.8106L15.1763 23.7649L15.1475 23.7129L15.1135 23.6671V23.7243V23.7817V23.839V23.8966V23.9539V24.0112V24.0685V24.1259V24.1834V24.2408V24.2924V24.3496V24.407V24.4642V24.5219V24.5792V24.6365V24.6938V24.7511V24.8084V24.866V24.9233V24.9807V25.038V25.0953V25.1526V25.2102V25.2675V25.3248V25.3821V25.4394V25.497V25.5486V25.6059V25.6632V25.7205V25.7779V25.8351V25.8928V25.9501V26.0074V26.0647V26.122H15.0566H14.9993H14.9423H14.8853H14.8284H14.7711H14.7141H14.6572H14.6001H14.5429H14.4859H14.4289H14.372H14.3147H14.2577H14.2007H14.1437H14.0864H14.0295V26.0647V26.0074V25.9501V25.8931V25.8358V25.7785V25.7212V25.664V25.6066V25.5493V25.492V25.4347V25.3773V25.3201V25.2627V25.2055V25.1482V25.0909V25.0393V24.982V24.9247V24.8674V24.8101V24.7528V24.6955V24.6382V24.5808V24.5235V24.4663V24.409V24.3517V24.2943V24.2371V24.1797V24.1224V24.0651V24.0078V23.9505V23.8933V23.8359V23.7787V23.7216V23.6644V23.607V23.5497V23.4924V23.4352V23.3778V23.3206V23.2632V23.2059V23.1486V23.0913V23.034V22.9824V22.9252V22.8678V22.8105V22.7532V22.6959V22.6386V22.5813V22.524V22.4667V22.4094V22.3521V22.2948V22.2375V22.1802V22.1229V22.0656V22.0083V21.951H14.0864H14.1437H14.195H14.2519H14.3089H14.3662H14.4175H14.4744H14.5318H14.5887H14.64H14.6969H14.7542H14.8112H14.8624H14.9193H14.9767H15.0337H15.0849H15.1418H15.1992L15.2275 21.9969L15.2561 22.0484L15.2901 22.0939L15.3188 22.1455L15.3475 22.1913L15.3758 22.2429L15.4044 22.2884L15.4385 22.34L15.4671 22.3858L15.4958 22.4317L15.5241 22.4829L15.5528 22.5288L15.5868 22.5803L15.6155 22.6262L15.6441 22.6774L15.6724 22.7232L15.7068 22.769L15.7355 22.8204L15.7637 22.8661L15.7924 22.9177L15.8208 22.9636L15.8551 23.0148L15.8838 23.0607L15.912 23.1122L15.9407 23.1577L15.969 23.2035L16.0034 23.2551L16.0321 23.301L16.0604 23.3526L16.089 23.3981L16.1173 23.4497L16.1518 23.4955L16.1804 23.5467L16.2087 23.5926L16.2374 23.5467L16.266 23.4955L16.3001 23.4497L16.3286 23.3981L16.357 23.3526L16.3857 23.301L16.4197 23.2551L16.4484 23.2035L16.4771 23.1577L16.5053 23.1122L16.5397 23.0607L16.568 23.0148L16.5967 22.9636L16.6253 22.9177L16.6593 22.8661L16.688 22.8204L16.7167 22.769L16.7449 22.7232L16.7737 22.6774L16.8077 22.6262L16.8363 22.5803L16.865 22.5288L16.8933 22.4829L16.9277 22.4317L16.9561 22.3858L16.9846 22.34L17.0133 22.2884L17.0473 22.2429L17.076 22.1913L17.1043 22.1455L17.133 22.0939L17.1674 22.0484L17.1957 21.9969L17.2243 21.951H17.2813H17.3383H17.3898H17.4468H17.5038H17.5607H17.6123H17.6693H17.7262H17.7832H17.8348H17.8917H17.9487H18.0057H18.0572H18.1142H18.1712H18.2281H18.2797H18.3367H18.3936V22.0083V22.0656V22.1229V22.1802V22.2375V22.2948V22.3521V22.4094V22.4667V22.524V22.5813V22.6386V22.6959V22.7532V22.8105V22.8678V22.9252V22.9824V23.034V23.0913V23.1486V23.2059V23.2632V23.3206V23.3778V23.4352V23.4924V23.5497V23.607V23.6644V23.7216V23.7787V23.8359V23.8933V23.9505V24.0078V24.0651V24.1224V24.1797V24.2371V24.2943V24.3517V24.409V24.4663V24.5235V24.5808V24.6382V24.6955V24.7528V24.8101V24.8674V24.9247V24.982V25.0393V25.0909V25.1482V25.2055V25.2627V25.3201V25.3773V25.4347V25.492V25.5493V25.6066V25.664V25.7212V25.7785V25.8358V25.8931V25.9501V26.0074V26.0647V26.122H18.3367ZM11.7175 24.4033L11.7003 24.3514L11.6777 24.294L11.6548 24.2424L11.6376 24.1905L11.615 24.139L11.5922 24.0816L11.5749 24.0297L11.552 23.9781L11.5295 23.9266L11.5122 23.8747L11.4893 23.8174L11.4724 23.7658L11.4495 23.7139L11.4265 23.6623L11.4094 23.6108L11.3868 23.5532L11.3639 23.5015L11.3467 23.45L11.3238 23.3981L11.3012 23.3408L11.284 23.2889L11.2611 23.2373L11.2385 23.2889L11.2214 23.3408L11.1984 23.3981L11.1755 23.45L11.1586 23.5015L11.1357 23.5532L11.1128 23.6108L11.0902 23.6623L11.073 23.7139L11.0501 23.7658L11.0271 23.8174L11.0103 23.8747L10.9874 23.9266L10.9644 23.9781L10.9473 24.0297L10.9247 24.0816L10.9017 24.139L10.8788 24.1905L10.862 24.2424L10.8391 24.294L10.8161 24.3514L10.7989 24.4033L10.7764 24.4548H10.8333H10.8903H10.9473H11.0046H11.0615H11.1185H11.1755H11.2328H11.284H11.341H11.3983H11.4552H11.5122H11.5692H11.6262H11.6834H11.7404L11.7175 24.4033ZM13.5091 26.122H13.4518H13.4005H13.3436H13.2863H13.2293H13.1723H13.1211H13.0638H13.0068H12.9499H12.8929H12.8356H12.7843H12.7274H12.6704H12.6131H12.5561H12.5049H12.4479H12.3907L12.368 26.0704L12.3508 26.0188L12.328 25.9672L12.305 25.91L12.2881 25.8587L12.2653 25.8072L12.2423 25.7556L12.2254 25.704L12.2026 25.6524L12.1796 25.6009L12.1625 25.5493L12.1399 25.492L12.1169 25.4404L12.0997 25.3889L12.0768 25.3373H12.0198H11.9629H11.9059H11.849H11.7974H11.7404H11.6834H11.6262H11.5692H11.5122H11.4552H11.3983H11.341H11.284H11.2328H11.1755H11.1185H11.0615H11.0046H10.9473H10.8903H10.8333H10.7764H10.7194H10.6678H10.6109H10.5539H10.4966H10.4396L10.417 25.3889L10.3999 25.4404L10.3769 25.492L10.354 25.5493L10.3372 25.6009L10.3143 25.6524L10.2913 25.704L10.2741 25.7556L10.2516 25.8072L10.2286 25.8587L10.2114 25.91L10.1888 25.9672L10.1659 26.0188L10.1487 26.0704L10.1258 26.122H10.0688H10.0119H9.95493H9.8976H9.84065H9.77794H9.72099H9.66398H9.60671H9.54976H9.49281H9.4358H9.37846H9.32158H9.26463H9.20193H9.14459H9.08764H9.03063H8.97368L8.99624 26.0704L9.01919 26.0188L9.04207 25.9672L9.0647 25.91L9.08189 25.8587L9.10484 25.8072L9.12772 25.7556L9.15028 25.704L9.17323 25.6524L9.19617 25.5951L9.21874 25.5435L9.24168 25.492L9.25881 25.4404L9.28176 25.3889L9.30432 25.3373L9.32727 25.28L9.35015 25.2284L9.37278 25.1768L9.39572 25.1253L9.4186 25.0737L9.4358 25.0221L9.45836 24.9648L9.48131 24.9132L9.50425 24.8617L9.52682 24.8101L9.54976 24.7585L9.57271 24.7069L9.59527 24.6496L9.61246 24.5981L9.63541 24.5465L9.65829 24.4949L9.68092 24.4433L9.7038 24.3918L9.72668 24.3345L9.74931 24.2829L9.77219 24.2313L9.78939 24.1797L9.81233 24.1282L9.83489 24.0766L9.85784 24.0193L9.88079 23.9677L9.90335 23.9161L9.92623 23.8646L9.94918 23.813L9.96637 23.7614L9.989 23.7102L10.0119 23.6529L10.0348 23.6014L10.0574 23.5497L10.0803 23.4981L10.1032 23.4466L10.1258 23.395L10.143 23.3377L10.1659 23.2862L10.1888 23.2346L10.2114 23.183L10.2344 23.1314L10.2573 23.0799L10.2799 23.0225L10.3028 22.971L10.32 22.9194L10.3428 22.8678L10.3655 22.8163L10.3883 22.7647L10.4113 22.7074L10.4339 22.6558L10.4568 22.6043L10.4797 22.5527L10.4966 22.5012L10.5195 22.4495L10.5425 22.3922L10.5654 22.3407L10.588 22.2891L10.6109 22.2375L10.6338 22.1859L10.6564 22.1344L10.6736 22.0771L10.6965 22.0255L10.7194 21.9739L10.742 21.9223H10.7989H10.8505H10.9075H10.9644H11.0218H11.073H11.1299H11.1869H11.2443H11.2955H11.3524H11.4094H11.4667H11.5179H11.5749H11.6318H11.6892H11.7404H11.7974L11.8203 21.9739L11.8432 22.0255L11.8658 22.0771L11.8887 22.1344L11.9059 22.1859L11.9285 22.2375L11.9514 22.2891L11.9743 22.3407L11.9973 22.3922L12.0198 22.4495L12.0428 22.5012L12.0657 22.5527L12.0825 22.6043L12.1055 22.6558L12.1284 22.7074L12.1514 22.7647L12.1739 22.8163L12.1968 22.8678L12.2198 22.9194L12.2423 22.971L12.2595 23.0225L12.2824 23.0799L12.305 23.1314L12.328 23.183L12.3508 23.2346L12.3738 23.2862L12.3964 23.3377L12.4192 23.395L12.4365 23.4466L12.4591 23.4981L12.4819 23.5497L12.5049 23.6014L12.5278 23.6529L12.5504 23.7102L12.5733 23.7614L12.5962 23.813L12.6131 23.8646L12.636 23.9161L12.6589 23.9677L12.6816 24.0193L12.7044 24.0766L12.7274 24.1282L12.7503 24.1797L12.7729 24.2313L12.7901 24.2829L12.813 24.3345L12.8356 24.3918L12.8585 24.4433L12.8814 24.4949L12.9043 24.5465L12.9269 24.5981L12.9499 24.6496L12.967 24.7069L12.9896 24.7585L13.0125 24.8101L13.0355 24.8617L13.058 24.9132L13.081 24.9648L13.1039 25.0221L13.1269 25.0737L13.1437 25.1253L13.1666 25.1768L13.1896 25.2284L13.2121 25.28L13.235 25.3373L13.258 25.3889L13.2808 25.4404L13.3034 25.492L13.3207 25.5435L13.3436 25.5951L13.3662 25.6524L13.389 25.704L13.4119 25.7556L13.4346 25.8072L13.4574 25.8587L13.4804 25.91L13.4976 25.9672L13.5201 26.0188L13.5431 26.0704L13.566 26.122H13.5091ZM8.51124 25.5894L8.46541 25.6237L8.42559 25.6524L8.37976 25.6868L8.33426 25.7155L8.28875 25.7499L8.24292 25.7785L8.19741 25.8072L8.14583 25.8358L8.09457 25.8645L8.04331 25.8931L7.99179 25.9157L7.94053 25.9444L7.88358 25.9672L7.83238 25.9902L7.77505 26.0131L7.72385 26.036L7.67253 26.0532L7.62101 26.0704L7.56975 26.0877L7.5128 26.1048L7.4616 26.122L7.40427 26.1335L7.35301 26.1449L7.29606 26.1564L7.23879 26.1678L7.18177 26.1736L7.11907 26.1793L7.06212 26.1851L6.99942 26.1908L6.94209 26.1965L6.87945 26.2022H6.81675H6.75398H6.69134H6.63401L6.57706 26.1965L6.51435 26.1908L6.45741 26.1851L6.40046 26.1793L6.34312 26.1736L6.28617 26.1621L6.22916 26.1506L6.17796 26.1392L6.12069 26.1277L6.06943 26.1105L6.01248 26.0991L5.9609 26.0818L5.90964 26.059L5.85838 26.0418L5.80149 26.0188L5.74991 25.9959L5.69865 25.9731L5.64745 25.9501L5.59581 25.9215L5.55036 25.8931L5.4991 25.8645L5.45327 25.8358L5.40776 25.8072L5.36194 25.7727L5.31643 25.7384L5.27085 25.704L5.23078 25.6696L5.19102 25.6353L5.15088 25.5951L5.11112 25.5608L5.07099 25.5207L5.03123 25.4805L4.99684 25.4404L4.96278 25.3946L4.92839 25.3545L4.89975 25.3086L4.86568 25.2627L4.83711 25.217L4.80874 25.1711L4.7801 25.1195L4.75147 25.0737L4.7289 25.0221L4.70596 24.9705L4.68308 24.9189L4.66045 24.8674L4.64326 24.8216L4.62031 24.7699L4.60887 24.7184L4.59199 24.6668L4.58055 24.6096L4.56336 24.5579L4.55192 24.5007L4.54617 24.4491L4.53466 24.3918L4.52904 24.3402L4.52322 24.2829L4.51785 24.2256L4.51216 24.1683V24.1053V24.0479V24.0365V23.9792L4.51785 23.9161V23.8589L4.52322 23.8015L4.52904 23.7385L4.54048 23.6816L4.54617 23.6242L4.55761 23.5727L4.5748 23.5154L4.5863 23.4581L4.60312 23.4065L4.62031 23.3492L4.6375 23.2976L4.66045 23.2403L4.68308 23.1888L4.70596 23.1372L4.7289 23.0856L4.75147 23.034L4.7801 22.9824L4.80874 22.9366L4.83711 22.8907L4.86568 22.8449L4.89438 22.7991L4.92839 22.7532L4.96278 22.7074L4.99684 22.6616L5.03123 22.6214L5.07099 22.5813L5.10537 22.5412L5.14519 22.5012L5.18527 22.461L5.22503 22.4266L5.27085 22.3865L5.31067 22.3521L5.35618 22.3177L5.40201 22.2891L5.44752 22.2547L5.49341 22.2261L5.53886 22.1974L5.59012 22.1687L5.6417 22.1401L5.6929 22.1115L5.74416 22.0885L5.79567 22.0656L5.85269 22.0369L5.8982 22.0198L5.95515 22.0025L6.00679 21.9797L6.05799 21.9682L6.10919 21.951L6.16646 21.9395L6.21772 21.9223L6.27467 21.9109L6.33168 21.9051L6.38895 21.8937L6.44596 21.8879L6.50285 21.8822L6.55986 21.8765L6.6172 21.8707H6.6799H6.73685H6.79949H6.86219L6.92528 21.8765L6.98798 21.8822H7.04493L7.10188 21.8879L7.16458 21.8994L7.21616 21.9051L7.27311 21.9166L7.33012 21.9281L7.38164 21.9395L7.43284 21.951L7.48416 21.9625L7.53574 21.9797L7.58694 21.9911L7.63245 22.0083L7.68403 22.0255L7.73529 22.0484L7.78649 22.0713L7.83807 22.0943L7.88933 22.1229L7.94053 22.1458L7.98642 22.1745L8.03762 22.2031L8.08313 22.2317L8.13471 22.2604L8.18022 22.2948L8.22573 22.3235L8.27155 22.3579L8.31706 22.3922L8.36289 22.4323L8.4084 22.4667L8.37401 22.5126L8.33426 22.5527L8.29987 22.5985L8.26011 22.6443L8.22573 22.6902L8.19166 22.7303L8.15152 22.7761L8.11751 22.822L8.08313 22.8622L8.04331 22.908L8.00898 22.9538L7.96916 22.9996L7.93478 23.0398L7.90077 23.0856L7.8607 23.1314L7.82656 23.1773L7.78649 23.2174L7.75242 23.2632L7.70659 23.2288L7.66109 23.1888L7.61526 23.1601L7.56975 23.1257L7.52424 23.0971L7.47841 23.0684L7.43284 23.0398L7.38164 23.0111L7.33581 22.9882L7.2903 22.9653L7.24448 22.9481L7.19321 22.9309L7.14202 22.9137L7.09044 22.9022L7.03349 22.8907L6.97654 22.8793L6.91952 22.8736L6.85682 22.8678L6.7938 22.8622H6.7311H6.67415L6.6172 22.8678L6.56562 22.8736L6.50867 22.885L6.45741 22.8965L6.40582 22.9137L6.35463 22.9309L6.30337 22.9538L6.2521 22.9767L6.20627 23.0053L6.16083 23.034L6.11494 23.0627L6.07518 23.0971L6.03504 23.1314L5.99529 23.1658L5.9609 23.2059L5.92114 23.246L5.88676 23.2919L5.85838 23.332L5.82974 23.3778L5.80149 23.4294L5.77279 23.4752L5.74991 23.5268L5.73272 23.5784L5.71009 23.63L5.6929 23.6873L5.68145 23.7443L5.67001 23.7958L5.65851 23.8589L5.65282 23.9161L5.64745 23.9734V24.0365V24.0479V24.1053L5.65282 24.1625L5.65851 24.2141L5.66426 24.2715L5.6757 24.323L5.68721 24.3746L5.69865 24.4261L5.71584 24.4777L5.73272 24.5235L5.75566 24.5808L5.77854 24.6325L5.80686 24.684L5.83549 24.7299L5.86413 24.7757L5.8982 24.8216L5.93258 24.8617L5.97234 24.9018L6.00679 24.9419L6.04648 24.9763L6.09238 25.0107L6.13789 25.045L6.18333 25.0737L6.22916 25.1023L6.28048 25.1253L6.33168 25.1482L6.3832 25.1711L6.44021 25.1883L6.49716 25.2055L6.55449 25.217L6.61144 25.2284L6.66839 25.2341L6.7311 25.2399H6.7938H6.86219L6.92528 25.2341L6.98798 25.2284L7.04493 25.2227L7.10188 25.2112L7.15921 25.1997L7.21616 25.1826L7.26736 25.1711L7.31868 25.1482L7.36451 25.1253L7.41571 25.1023L7.45578 25.0794L7.50136 25.0507V24.9935V24.9362V24.8789V24.8216V24.7585V24.7012V24.6439V24.5866V24.5293H7.44434H7.39283H7.33581H7.27886H7.22191H7.17033H7.11332H7.05637H6.99942H6.9479H6.89089H6.83394H6.77692H6.72541H6.66839V24.472V24.4205V24.3631V24.3058V24.2485V24.1969V24.1397V24.0823V24.0251V23.9734V23.9161V23.8589V23.8015V23.75V23.693H6.72541H6.78268H6.83969H6.89658H6.95359H7.01054H7.06787H7.12482H7.18177H7.23879H7.29606H7.35301H7.40996H7.46691H7.52424H7.58125H7.6382H7.69515H7.75242H7.80943H7.86639H7.92334H7.9806H8.03762H8.09457H8.15152H8.20885H8.2658H8.32281H8.37976H8.43703H8.49399H8.551V23.75V23.8072V23.8646V23.9161V23.9734V24.0307V24.088V24.1454V24.2027V24.2542V24.3115V24.3689V24.4261V24.4835V24.5407V24.5981V24.6496V24.7069V24.7643V24.8216V24.8789V24.9362V24.9935V25.045V25.1023V25.1596V25.217V25.2743V25.3315V25.3832V25.4404V25.4977V25.555L8.51124 25.5894ZM9.14897 12.5135H6.67648V16.6744H9.28652V18.5869H4.57687V4.78404H9.2474V6.69656H6.67648V10.601H9.14897V12.5135ZM24.3862 12.9278V16.0434C24.3862 16.5955 24.131 16.8517 23.6014 16.8517H23.2087C22.6594 16.8517 22.4042 16.5955 22.4042 16.0434V7.32756C22.4042 6.77545 22.6594 6.51927 23.2087 6.51927H23.562C24.0919 6.51927 24.3471 6.77545 24.3471 7.32756V10.0293H26.4073V7.20925C26.4073 5.49392 25.5831 4.66568 23.8762 4.66568H22.8555C21.1486 4.66568 20.3045 5.51347 20.3045 7.22913V16.1418C20.3045 17.8575 21.1486 18.7052 22.8555 18.7052H23.8957C25.603 18.7052 26.4467 17.8575 26.4467 16.1418V12.9278H24.3862ZM19.1948 18.587H17.0949V4.78402H19.1948V18.587ZM14.0481 10.9164C14.0481 11.4686 13.7932 11.7251 13.2634 11.7251H12.3998V6.6376H13.2634C13.7932 6.6376 14.0481 6.89384 14.0481 7.44589V10.9164ZM13.5967 4.78401H10.3001V18.587H12.3998V13.5783H13.5967C15.304 13.5783 16.1477 12.7306 16.1477 11.0153V7.34746C16.1477 5.6318 15.304 4.78401 13.5967 4.78401ZM21.55 31.0675H9.53022L15.4149 33.0908L21.55 31.0675Z" fill="white"/>
</g>
<defs>
<clipPath id="clip0">
<rect width="31.0236" height="36" fill="white"/>
</clipPath>
</defs>
</svg>
