<svg width="40" height="40" viewBox="0 0 40 40" fill="none" xmlns="http://www.w3.org/2000/svg">
<path fill-rule="evenodd" clip-rule="evenodd" d="M2.30696 16.6725H28.0154C28.1206 16.6725 28.2163 16.6113 28.2605 16.5158L30.4686 11.7397C30.5311 11.6043 30.4721 11.4439 30.3368 11.3813C30.3013 11.3649 30.2626 11.3564 30.2235 11.3564L4.20555 11.3596C7.26345 5.78169 13.1901 2 20 2C29.9411 2 38 10.0589 38 20C38 29.9411 29.9411 38 20 38C10.0589 38 2 29.9411 2 20C2 18.8631 2.1054 17.7509 2.30696 16.6725ZM13.34 31.52C13.34 31.7188 13.5012 31.88 13.7 31.88H14.1658L19.8805 24.68H24.3106C24.4159 24.68 24.5116 24.6188 24.5557 24.5231L26.7561 19.7552C26.7725 19.7197 26.781 19.6811 26.781 19.642C26.781 19.4929 26.6601 19.372 26.511 19.372H13.34V31.52Z" fill="white"/>
</svg>
