<svg width="32" height="32" viewBox="0 0 32 32" fill="none" xmlns="http://www.w3.org/2000/svg">
<path d="M23.8603 25.5875C19.3475 25.5875 26.2951 0.00590749 26.2951 0.00590749L21.6446 0C21.6446 0 19.7409 6.02091 18.4849 12.7113H14.4768C14.5818 11.3356 14.6324 9.94319 14.6094 8.55912C14.4288 -2.45518 7.97761 -0.415157 5.0897 2.11281C2.34397 4.51588 0.0443975 9.08139 0 12.5973C0.437398 12.576 2.16543 12.5686 2.16543 12.5686C2.16543 12.5686 3.60237 6.01303 8.11518 6.01303C12.6273 6.01303 5.66918 31.5949 5.66918 31.5949L10.3217 31.5984C10.3217 31.5984 12.7263 24.7498 13.9221 17.1018L17.7494 17.0798C17.5266 19.0589 17.4557 21.2444 17.4883 23.2741C17.6696 34.2884 24.0955 31.9247 26.9834 29.3974C29.8714 26.8695 32.0264 21.5316 31.9998 18.9686C32.0033 18.9657 29.8061 18.9864 29.7798 18.9858C29.7873 19.1882 28.3725 25.5875 23.8603 25.5875Z" fill="white"/>
</svg>
