<svg width="40" height="40" viewBox="0 0 40 40" fill="none" xmlns="http://www.w3.org/2000/svg">
  <path fill-rule="evenodd" clip-rule="evenodd" d="M19.5958 12.5678C22.239 12.5678 24.3791 11.9513 24.3791 11.1924L25.5024 4.2981L21.9375 7.74477L19.5609 2L17.1872 7.74477L13.6242 4.2981L14.8116 11.1924C14.8116 11.9513 16.9527 12.5678 19.5958 12.5678ZM16.6241 3.77842L17.6292 5.32922C17.479 5.69559 17.3438 6.02399 17.2385 6.27958L17.2384 6.27975L17.2383 6.28021C17.129 6.54561 17.052 6.7324 17.0244 6.80152C16.9601 6.73831 16.7914 6.57521 16.56 6.35157C16.3656 6.16367 16.127 5.93303 15.869 5.683L16.6241 3.77842ZM22.5026 3.77454L23.2625 5.683C23.1044 5.83541 22.9539 5.98078 22.8163 6.1137L22.8148 6.11515L22.8147 6.11525L22.8146 6.11539C22.4577 6.46009 22.1879 6.72072 22.0984 6.80249C22.0567 6.69755 21.9036 6.32745 21.6944 5.82164L21.6943 5.82143L21.4907 5.32922L22.5026 3.77454ZM15.7992 17.4624C15.597 17.572 15.4411 17.7254 15.3161 17.8484C15.1337 18.0278 15.0171 18.1425 14.9182 17.9626C14.7515 17.6592 14.86 16.8964 15.3582 16.624C15.8564 16.3517 16.5504 16.6705 16.7152 16.9778C16.8136 17.1614 16.6446 17.201 16.3867 17.2615C16.213 17.3022 15.999 17.3524 15.7992 17.4624ZM23.3323 17.4624C23.5345 17.572 23.6906 17.7254 23.8158 17.8484C23.9983 18.0278 24.115 18.1425 24.2133 17.9626C24.3791 17.6592 24.2725 16.8964 23.7733 16.624C23.2741 16.3517 22.5772 16.6705 22.4163 16.9778C22.32 17.1617 22.4874 17.2012 22.745 17.2618C22.9176 17.3025 23.1308 17.3527 23.3323 17.4624ZM19.5464 19.3545C19.1364 19.3545 18.7613 19.5047 18.4602 19.6252C18.019 19.8019 17.7368 19.9149 17.7368 19.3981C17.7368 18.5287 18.5519 16.9914 19.5639 16.9914C20.5758 16.9914 21.3938 18.5296 21.3938 19.3981C21.3938 19.917 21.0949 19.8003 20.6388 19.6222C20.3316 19.5023 19.953 19.3545 19.5464 19.3545ZM20.3015 19.9292C20.3015 19.7179 19.9303 19.6103 19.5261 19.6103C19.1171 19.6103 18.8341 19.7179 18.8341 19.9292C18.8341 20.1405 19.1607 20.5166 19.5678 20.5166C19.9749 20.5166 20.3015 20.1405 20.3015 19.9292ZM24.4877 11.7206C26.4117 13.4197 27.6678 16.2112 28.8493 19.6317C29.0695 20.2683 29.4689 20.9477 29.9178 21.7112C30.9053 23.3911 32.1325 25.4787 32.2185 28.416C32.297 31.1416 30.3013 36.1584 25.5994 38C27.6349 36.9261 29.0287 34.7966 29.0287 31.0776C29.0287 27.1211 27.2433 23.3236 25.2079 20.6688C25.7216 19.906 26.0366 18.8776 26.0366 17.7397C26.0366 15.397 24.6922 13.4982 23.0319 13.4982C21.5858 13.4982 20.3742 14.9521 20.097 16.8906C19.9486 16.8086 19.7819 16.7655 19.6124 16.7655C19.4428 16.7655 19.2761 16.8086 19.1277 16.8906C18.8496 14.9531 17.639 13.4934 16.1909 13.4934C14.5257 13.4934 13.1862 15.3922 13.1862 17.7348C13.1862 18.8727 13.5022 19.9011 14.0149 20.6639C11.9805 23.3139 10.1922 27.1211 10.1922 31.0757C10.1922 34.7995 11.5743 36.9202 13.6224 37.9981C8.89047 36.1594 6.92192 31.1396 7.00236 28.4141C7.08975 25.4751 8.31837 23.3858 9.30666 21.7052C9.7544 20.9438 10.1528 20.2663 10.3734 19.6317C11.5608 16.184 12.8295 13.3761 14.7748 11.677C15.2275 12.4669 17.4878 12.905 19.6414 12.905C21.7418 12.905 23.9614 12.4892 24.4877 11.7206Z" fill="white"/>
  </svg>
  