
<svg width="36" height="35" viewBox="0 0 36 35" fill="none" xmlns="http://www.w3.org/2000/svg">
  <path fill-rule="evenodd" clip-rule="evenodd" d="M35.2321 0.766609C34.7596 0.292885 34.1038 -7.62939e-06 33.3818 -7.62939e-06H2.61823C1.89618 -7.62939e-06 1.24035 0.292885 0.767895 0.766609C0.294169 1.23906 0 1.89617 0 2.61758V31.6384C0 32.3604 0.294169 33.0176 0.767895 33.49C1.24035 33.9631 1.89618 34.2573 2.61823 34.2573H33.3818C34.1038 34.2573 34.7596 33.9631 35.2321 33.49C35.7058 33.0176 36 32.3604 36 31.6384V2.61758C36 1.89617 35.7058 1.23906 35.2321 0.766609ZM10.7266 21.9927H6.54587H6.53887C6.21032 21.9927 5.94671 22.2595 5.94671 22.588C5.94671 22.588 5.94799 22.588 5.94799 22.5918H5.94671V25.58H5.94799L5.94671 25.5826C5.94671 25.9098 6.21032 26.1792 6.53887 26.1792H6.54587H6.97885H10.7266V28.1728H5.501V28.1677C4.64588 28.1677 3.95439 27.4762 3.95439 26.6236V21.5425C3.95439 20.6944 4.64588 20.0029 5.501 20.0029H10.7266V21.9927ZM10.6709 18.0121C11.5363 18.0121 12.2386 17.313 12.2386 16.4438V7.65253C12.2386 6.78658 11.5363 6.0849 10.6709 6.0849H5.51663C4.6494 6.0849 3.94964 6.78658 3.94964 7.65253V12.8062C3.94964 13.6728 4.6494 14.3732 5.51663 14.3732H9.00399V12.3529H6.57742H6.57105C6.23804 12.3529 5.96998 12.0823 5.96998 11.7486V11.7448V8.71396V8.7095C5.96998 8.37649 6.23804 8.10652 6.57105 8.10652H6.57742H9.61016H9.61652C9.95017 8.10652 10.2176 8.37649 10.2176 8.7095V8.71396V15.3837V15.3875C10.2176 15.7193 9.95017 15.9918 9.61652 15.9918H9.61016H3.94964V18.0121H10.6709ZM32.0442 28.1677H30.0525V21.9927H28.6593H28.653C28.3238 21.9927 28.0602 22.2595 28.0602 22.588V22.5918V28.1677H26.0685V21.9927H24.6722H24.6683C24.3385 21.9927 24.0749 22.2595 24.0749 22.588V22.5918V28.1728H22.0839V21.5425C22.0839 20.6944 22.7734 20.0029 23.6286 20.0029H32.0442V28.1677ZM30.4828 18.0121C31.3469 18.0121 32.0498 17.313 32.0498 16.4438V7.65253C32.0498 6.78658 31.3469 6.0849 30.4828 6.0849H25.3291C24.4619 6.0849 23.7609 6.78658 23.7609 7.65253V12.8062C23.7609 13.6728 24.4619 14.3732 25.3291 14.3732H28.8146V12.3529H26.3887H26.3829C26.0531 12.3529 25.7838 12.0823 25.7838 11.7486V11.7448V8.71396V8.7095C25.7838 8.37649 26.0531 8.10652 26.3829 8.10652H26.3887H29.4239H29.4278C29.7627 8.10652 30.0314 8.37649 30.0314 8.7095V8.71396V15.3837V15.3875C30.0314 15.7193 29.7627 15.9918 29.4278 15.9918H29.4239H23.7609V18.0121H30.4828ZM20.1188 8.71421V11.7444V11.7482C20.1188 12.0819 19.8571 12.3531 19.5228 12.3531H19.5158H16.483H16.4786C16.1443 12.3531 15.8769 12.0819 15.8769 11.7482V11.7444V8.71421V8.70912C15.8769 8.37611 16.1443 8.10677 16.4786 8.10677H16.483H19.5158H19.5228C19.8571 8.10677 20.1188 8.37611 20.1188 8.70912V8.71421ZM20.5779 6.08516H15.4216C14.5557 6.08516 13.8559 6.78683 13.8559 7.65278V12.8065C13.8559 13.6724 14.5557 14.3735 15.4216 14.3735H20.5779C21.4413 14.3735 22.1442 13.6724 22.1442 12.8065V7.65278C22.1442 6.78683 21.4413 6.08516 20.5779 6.08516ZM18.4973 25.5797V22.5916V22.5878C18.4973 22.2592 18.2337 21.9924 17.9064 21.9924H17.8994H14.9119H14.9055C14.5769 21.9924 14.3133 22.2592 14.3133 22.5878V22.5916V25.5797C14.3133 25.9083 14.5769 26.1764 14.9055 26.1764C14.9087 26.1764 14.9119 26.1732 14.9119 26.1732V26.1764H17.8994V26.1732C17.901 26.1732 17.9019 26.174 17.9029 26.1748C17.9038 26.1756 17.9048 26.1764 17.9064 26.1764C18.2337 26.1764 18.4973 25.9083 18.4973 25.5797ZM13.8663 20.0026H18.9449C19.7968 20.0026 20.4883 20.6941 20.4883 21.5423V26.6233C20.4883 27.4759 19.7968 28.1674 18.9449 28.1674H13.8663C13.0112 28.1674 12.321 27.4759 12.321 26.6233V21.5423C12.321 20.6941 13.0112 20.0026 13.8663 20.0026Z" fill="white"/>
</svg>
