<svg width="67" height="20" viewBox="0 0 67 20" fill="none" xmlns="http://www.w3.org/2000/svg">
<g clip-path="url(#clip0)">
<path d="M29.196 8.03172C27.7651 8.03179 26.3927 8.60029 25.3809 9.61215C24.3691 10.624 23.8007 11.9964 23.8007 13.4273V19.4976H38.9415L41.0891 15.4508H28.0351V13.8284C28.0351 13.364 28.2196 12.9187 28.5479 12.5903C28.8763 12.2619 29.3216 12.0774 29.786 12.0774L38.3016 12.0767C39.8221 12.0767 41.2803 11.4727 42.3554 10.3975C43.4305 9.3224 44.0346 7.8642 44.0346 6.34373C44.0346 4.82326 43.4305 3.36506 42.3554 2.28992C41.2803 1.21478 39.8221 0.610779 38.3016 0.610779L28.1677 0.612608C27.6363 0.612601 27.1101 0.717268 26.6191 0.920636C26.1281 1.124 25.682 1.42209 25.3062 1.79787C24.9304 2.17365 24.6323 2.61976 24.4289 3.11075C24.2255 3.60173 24.1209 4.12796 24.1209 4.6594L38.0065 4.65902C38.4507 4.65537 38.8789 4.82462 39.2006 5.13099C39.5222 5.43737 39.7121 5.85683 39.73 6.30068C39.7362 6.52556 39.6972 6.7494 39.6155 6.95899C39.5337 7.16857 39.4108 7.35966 39.254 7.52098C39.0972 7.68229 38.9097 7.81057 38.7025 7.89824C38.4953 7.9859 38.2727 8.03119 38.0477 8.03141L29.196 8.03172Z" fill="white"/>
<path d="M9.69101 15.4405C8.26246 15.4405 6.89242 14.873 5.88229 13.8629C4.87215 12.8527 4.30467 11.4827 4.30467 10.0541C4.30467 8.62559 4.87215 7.25556 5.88229 6.24542C6.89242 5.23529 8.26246 4.6678 9.69101 4.6678L20.625 4.65934V0.612549L9.43366 0.620474C6.9317 0.620474 4.53221 1.61438 2.76306 3.38353C0.993901 5.15269 0 7.55218 0 10.0541C0 12.5561 0.993901 14.9556 2.76306 16.7247C4.53221 18.4939 6.9317 19.4878 9.43366 19.4878L20.625 19.4973V8.03128L8.4844 8.03158V12.0785L16.3906 12.0784V15.4505L9.69101 15.4405Z" fill="white"/>
<path d="M54.5289 17.2009H53.8774C53.5729 17.2009 53.2809 17.3219 53.0655 17.5372C52.8502 17.7526 52.7292 18.0446 52.7292 18.3491C52.7292 18.6536 52.8502 18.9457 53.0655 19.161C53.2809 19.3764 53.5729 19.4973 53.8774 19.4973H54.5289C54.8334 19.4973 55.1255 19.3764 55.3408 19.161C55.5561 18.9457 55.6771 18.6536 55.6771 18.3491C55.6771 18.0446 55.5561 17.7526 55.3408 17.5372C55.1255 17.3219 54.8334 17.2009 54.5289 17.2009ZM54.5055 19.0173H53.9008C53.7236 19.0173 53.5537 18.9469 53.4284 18.8216C53.3031 18.6963 53.2327 18.5264 53.2327 18.3492C53.2327 18.172 53.3031 18.0021 53.4284 17.8768C53.5537 17.7515 53.7236 17.6811 53.9008 17.6811H54.5055C54.6827 17.6811 54.8526 17.7515 54.9779 17.8768C55.1032 18.0021 55.1736 18.172 55.1736 18.3492C55.1736 18.5264 55.1032 18.6963 54.9779 18.8216C54.8526 18.9469 54.6827 19.0173 54.5055 19.0173Z" fill="white"/>
<path d="M49.95 18.3491C49.9503 18.6535 50.0713 18.9454 50.2866 19.1606C50.5018 19.3759 50.7937 19.497 51.0981 19.4973H52.4108V19.0173H51.1216C50.9444 19.0173 50.7744 18.9469 50.6492 18.8216C50.5239 18.6963 50.4535 18.5264 50.4535 18.3492C50.4535 18.172 50.5239 18.0021 50.6492 17.8768C50.7744 17.7515 50.9444 17.6811 51.1216 17.6811H52.4108V17.2009H51.0981C50.7937 17.2013 50.5019 17.3223 50.2866 17.5376C50.0714 17.7528 49.9503 18.0447 49.95 18.3491Z" fill="white"/>
<path d="M58.2188 17.2009L57.7182 18.5764L57.2175 17.2009H56.5835L55.7323 19.4969H56.2726L56.9005 17.7336L57.4598 19.2706H57.9765L58.5358 17.7336L59.1638 19.4969H59.7033L58.8528 17.2009H58.2188Z" fill="white"/>
<path d="M49.3578 19.4974C49.5311 19.4974 49.6715 19.3569 49.6715 19.1837C49.6715 19.0105 49.5311 18.8701 49.3578 18.8701C49.1846 18.8701 49.0442 19.0105 49.0442 19.1837C49.0442 19.3569 49.1846 19.4974 49.3578 19.4974Z" fill="white"/>
<path d="M57.8926 2.78844C57.5807 2.17525 57.1372 1.63855 56.5937 1.21674C55.9574 0.743708 55.1833 0.49274 54.3905 0.502405C53.6158 0.492752 52.8604 0.744399 52.2462 1.21674C51.7028 1.63855 51.2593 2.17525 50.9474 2.78844C47.4104 9.52636 42.1141 19.4976 42.1141 19.4976H46.9474L54.3905 5.23785L57.8884 11.9394H52.5028L54.4015 15.565H59.7808L61.8336 19.4976H66.6667C66.6667 19.4976 61.4295 9.52636 57.8926 2.78844Z" fill="white"/>
</g>
<defs>
<clipPath id="clip0">
<rect width="66.6667" height="20" fill="white"/>
</clipPath>
</defs>
</svg>
