<svg width="39" height="38" viewBox="0 0 39 38" fill="none" xmlns="http://www.w3.org/2000/svg">
<g clip-path="url(#clip0)">
<path fill-rule="evenodd" clip-rule="evenodd" d="M20.9326 4.5654C22.1624 5.30532 23.1536 6.38317 23.788 7.67054C24.2721 8.65638 24.4226 9.77285 24.2169 10.8517C23.9995 11.997 23.461 13.0569 22.6643 13.908C21.7483 14.881 20.5849 15.5866 19.2986 15.9491C17.6693 16.3954 15.957 16.4456 14.3043 16.0957C14.1065 16.0584 13.9084 16.0228 13.71 15.989C13.6699 15.9842 13.6273 15.9782 13.5823 15.9709C9.01141 15.2326 5.03227 16.5191 3.43627 19.7057C2.48084 21.6057 0.542839 21.014 0.553696 18.848C0.553708 18.8479 0.55372 18.8478 0.553732 18.8478C0.413591 15.5858 1.39233 12.3738 3.32774 9.74426C5.10268 7.36394 7.49674 5.51629 10.2492 4.40254C12.6476 3.37451 15.2863 3.03974 17.8655 3.43626C18.0179 3.13403 18.2743 2.89694 18.5875 2.76854C18.6999 2.72161 18.8003 2.64987 18.8812 2.55869C18.962 2.46751 19.0212 2.35924 19.0543 2.24197C19.1173 2.05948 19.2173 1.89198 19.3481 1.74998C19.4789 1.60799 19.6376 1.49456 19.8143 1.41683C19.9947 1.3374 20.1396 1.19443 20.2215 1.01511C20.482 0.461398 21.1497 -0.179173 21.66 0.0922551C22.0889 0.325684 21.8772 0.955398 21.7143 1.31911C21.64 1.47441 21.6172 1.64937 21.6492 1.81854C21.6784 1.95314 21.6775 2.09254 21.6465 2.22675C21.6156 2.36096 21.5553 2.48666 21.47 2.59483C21.3914 2.69668 21.3377 2.8155 21.3132 2.94181C21.2887 3.06811 21.2941 3.1984 21.3289 3.32226C21.3842 3.49252 21.3917 3.67472 21.3505 3.84895C21.3094 4.02318 21.2211 4.18276 21.0955 4.31026C21.0256 4.3843 20.9703 4.47086 20.9326 4.5654Z" fill="white"/>
<path fill-rule="evenodd" clip-rule="evenodd" d="M26.2201 5.46657C25.0475 3.69143 26.535 2.31257 28.4024 3.39828C28.4059 3.40109 28.4095 3.40389 28.413 3.4067C31.3018 4.91816 33.5885 7.37021 34.8949 10.3577C35.5858 11.9529 36.0077 13.6515 36.1435 15.3846C38.1358 15.5909 38.3909 16.4703 36.4149 18.012H36.4095C39.0966 18.0554 39.1292 19.0597 36.0566 21.0249C38.2606 21.2311 37.8426 22.3711 34.3846 24.434C34.2349 24.5225 34.1084 24.6453 34.0155 24.7923C33.6813 25.3304 33.3018 25.8389 32.8809 26.3123C32.0977 27.247 31.1078 27.9867 29.9895 28.4729C28.8711 28.9591 27.6549 29.1784 26.4372 29.1134C25.3392 29.0403 24.295 28.6115 23.4623 27.892C22.5816 27.1287 21.9359 26.1309 21.6003 25.0149C21.2149 23.7351 21.1849 22.3746 21.5135 21.0791C21.9425 19.4453 22.7558 17.9377 23.8858 16.682C24.1274 16.4022 24.3646 16.1186 24.5971 15.8313C27.3395 12.3137 28.1226 8.36792 26.2201 5.46657Z" fill="white"/>
<path fill-rule="evenodd" clip-rule="evenodd" d="M18.9153 25.6655C20.5966 29.8258 23.6486 32.4907 27.1265 32.2783C29.2491 32.148 29.7105 34.1186 27.8322 35.2043L27.8322 35.1989C27.8007 35.2115 27.7692 35.224 27.7379 35.2363C27.7695 35.2262 27.8009 35.2155 27.8322 35.2043C25.0828 36.9622 21.8154 37.7283 18.5711 37.3757C15.619 37.0344 12.8173 35.889 10.4717 34.0643C8.9928 32.9366 7.73724 31.543 6.76939 29.9549C5.34167 30.3186 4.53281 30.21 4.3971 29.6129C4.27767 29.108 4.64681 28.2503 5.52624 27.0397C5.22815 25.9769 5.16112 24.8626 5.32967 23.7717C5.49821 22.6809 5.89843 21.6387 6.50339 20.7154C7.11461 19.8021 8.00633 19.1124 9.04396 18.7503C10.143 18.3644 11.329 18.2985 12.464 18.5603C13.7656 18.8612 14.9609 19.5105 15.922 20.4386C16.299 20.799 16.644 21.1913 16.9534 21.6112C18.4571 21.6926 19.3528 21.9477 19.6731 22.3549C20.0477 22.838 19.6297 23.5329 18.4517 24.4069L18.5548 24.6892C18.6701 25.0164 18.7903 25.3419 18.9153 25.6655Z" fill="white"/>
</g>
<defs>
<clipPath id="clip0">
<rect width="38.5429" height="38" fill="white"/>
</clipPath>
</defs>
</svg>
