<svg width="36" height="36" viewBox="0 0 36 36" fill="none" xmlns="http://www.w3.org/2000/svg">
<g clip-path="url(#clip0)">
<path d="M17.9369 0C13.4135 0.000829254 9.05624 1.70493 5.73244 4.77311C2.40864 7.8413 0.362038 12.0486 0 16.5575L9.64802 20.5453C10.4931 19.9674 11.493 19.6582 12.5168 19.6582H12.7976L17.0905 13.4486V13.3591C17.0913 12.0169 17.4901 10.705 18.2364 9.58934C18.9827 8.4737 20.043 7.60438 21.2833 7.09128C22.5236 6.57818 23.8882 6.44435 25.2046 6.7067C26.5209 6.96905 27.7299 7.61581 28.6788 8.56521C29.6276 9.5146 30.2736 10.724 30.5352 12.0405C30.7968 13.357 30.6621 14.7215 30.1483 15.9615C29.6344 17.2015 28.7645 18.2613 27.6484 19.007C26.5323 19.7526 25.2202 20.1506 23.8779 20.1506H23.7233L17.6195 24.5168C17.6195 24.5982 17.6195 24.6796 17.6195 24.7609C17.6216 26.0265 17.1526 27.2475 16.3038 28.1862C15.455 29.1249 14.2872 29.7141 13.0278 29.839C11.7685 29.9639 10.5077 29.6156 9.49101 28.862C8.47434 28.1083 7.77457 27.0032 7.52798 25.762L0.610376 22.9135C1.52397 26.1351 3.31799 29.038 5.7908 31.2959C8.2636 33.5538 11.3172 35.0773 14.6083 35.6951C17.8994 36.3128 21.2975 36.0004 24.4208 34.793C27.5441 33.5855 30.2688 31.5308 32.2884 28.8599C34.3081 26.1889 35.5428 23.0076 35.8537 19.6735C36.1646 16.3394 35.5395 12.9847 34.0485 9.98634C32.5574 6.98803 30.2597 4.46501 27.4135 2.70086C24.5673 0.936722 21.2855 0.00139022 17.9369 0V0Z" fill="white"/>
<path d="M11.2798 27.3123L9.07025 26.4008C9.39297 27.0691 9.90313 27.6291 10.5385 28.0125C11.174 28.3959 11.9072 28.5862 12.6489 28.5602C13.3905 28.5341 14.1086 28.2929 14.7156 27.8659C15.3226 27.4389 15.7922 26.8445 16.0673 26.1552C16.3423 25.466 16.411 24.7115 16.2648 23.984C16.1186 23.2564 15.7639 22.587 15.2439 22.0575C14.7239 21.528 14.0611 21.1612 13.3363 21.0018C12.6115 20.8423 11.856 20.8972 11.1618 21.1597L13.4283 22.116C13.7804 22.2505 14.1018 22.4542 14.3737 22.7153C14.6455 22.9763 14.8622 23.2892 15.0109 23.6354C15.1596 23.9817 15.2372 24.3543 15.2393 24.7312C15.2413 25.108 15.1677 25.4814 15.0228 25.8293C14.8778 26.1772 14.6646 26.4924 14.3956 26.7564C14.1266 27.0203 13.8073 27.2276 13.4568 27.3659C13.1062 27.5041 12.7315 27.5707 12.3547 27.5615C11.978 27.5523 11.6069 27.4676 11.2635 27.3123H11.2798Z" fill="white"/>
<path d="M28.4028 13.3591C28.3988 12.465 28.13 11.5922 27.6304 10.8507C27.1307 10.1093 26.4226 9.53249 25.5955 9.19312C24.7683 8.85376 23.8591 8.76705 22.9827 8.94393C22.1063 9.12082 21.302 9.55337 20.6712 10.187C20.0404 10.8206 19.6115 11.6269 19.4385 12.5041C19.2655 13.3813 19.3563 14.2901 19.6994 15.1157C20.0425 15.9413 20.6224 16.6468 21.3661 17.1431C22.1098 17.6395 22.9838 17.9043 23.8779 17.9043C24.4737 17.9038 25.0635 17.7857 25.6136 17.5569C26.1637 17.328 26.6632 16.9929 27.0835 16.5706C27.5039 16.1484 27.8368 15.6474 28.0632 15.0963C28.2895 14.5452 28.405 13.9549 28.4028 13.3591ZM20.4883 13.3591C20.4883 12.6871 20.6876 12.0301 21.0609 11.4714C21.4343 10.9126 21.9649 10.4771 22.5858 10.2199C23.2066 9.96278 23.8898 9.89549 24.5489 10.0266C25.208 10.1577 25.8134 10.4813 26.2886 10.9565C26.7638 11.4317 27.0874 12.0371 27.2185 12.6962C27.3496 13.3553 27.2823 14.0385 27.0252 14.6593C26.768 15.2802 26.3325 15.8109 25.7737 16.1842C25.215 16.5576 24.5581 16.7568 23.886 16.7568C23.4395 16.7568 22.9973 16.6688 22.5848 16.4978C22.1723 16.3268 21.7976 16.0762 21.482 15.7602C21.1665 15.4443 20.9163 15.0692 20.7458 14.6565C20.5752 14.2438 20.4877 13.8015 20.4883 13.355V13.3591Z" fill="white"/>
</g>
<defs>
<clipPath id="clip0">
<rect width="36" height="36" fill="white"/>
</clipPath>
</defs>
</svg>
