<svg width="41" height="40" viewBox="0 0 41 40" fill="none" xmlns="http://www.w3.org/2000/svg">
<g clip-path="url(#clip0_527_266057)">
<path d="M8.8295 7.54658C8.22135 7.54658 7.62995 7.23125 7.30402 6.66714C6.81813 5.82616 7.10648 4.75081 7.94808 4.26528L11.4671 2.23505C12.3087 1.74951 13.3849 2.03767 13.8708 2.87863C14.3567 3.7196 14.0683 4.79495 13.2267 5.28049L9.70764 7.31073C9.43056 7.47057 9.12799 7.54658 8.8295 7.54658Z" fill="white"/>
<path d="M35.2214 18.9848L10.5874 33.1968L10.5874 27.106L29.9131 15.9501L26.4116 13.9299L7.94804 24.5682C7.40362 24.8822 7.06825 25.4627 7.06825 26.0908L7.06823 36.2423C7.06823 36.8705 7.4036 37.4509 7.94802 37.7651C8.22025 37.9221 8.52399 38.0006 8.82782 38.0006C9.13156 38.0006 9.43542 37.922 9.70758 37.7651L39.6204 20.5076C40.1648 20.1935 40.5002 19.613 40.5002 18.9848C40.5002 18.3568 40.1648 17.7762 39.6204 17.4622L30.8524 12.4036C30.8336 12.3924 30.8147 12.3814 30.7955 12.3709L22.0247 7.31072C21.4802 6.99665 20.8096 6.99665 20.2651 7.31072L7.94807 14.4167C7.10648 14.9023 6.81813 15.9776 7.30402 16.8186C7.62995 17.3827 8.22136 17.698 8.82951 17.698C9.12799 17.6979 9.43057 17.622 9.70764 17.4622L21.1448 10.8637L35.2214 18.9848Z" fill="url(#paint0_linear_527_266057)"/>
<path d="M35.2214 18.9848L10.5874 33.1968L10.5874 27.106L29.9131 15.9501L26.4116 13.9299L7.94804 24.5682C7.40362 24.8822 7.06825 25.4627 7.06825 26.0908L7.06823 36.2423C7.06823 36.8705 7.4036 37.4509 7.94802 37.7651C8.22025 37.9221 8.52399 38.0006 8.82782 38.0006C9.13156 38.0006 9.43542 37.922 9.70758 37.7651L39.6204 20.5076C40.1648 20.1935 40.5002 19.613 40.5002 18.9848C40.5002 18.3568 40.1648 17.7762 39.6204 17.4622L30.8524 12.4036C30.8336 12.3924 30.8147 12.3814 30.7955 12.3709L22.0247 7.31072C21.4802 6.99665 20.8096 6.99665 20.2651 7.31072L7.94807 14.4167C7.10648 14.9023 6.81813 15.9776 7.30402 16.8186C7.62995 17.3827 8.22136 17.698 8.82951 17.698C9.12799 17.6979 9.43057 17.622 9.70764 17.4622L21.1448 10.8637L35.2214 18.9848Z" fill="url(#paint1_radial_527_266057)"/>
<path d="M35.2214 18.9848L10.5874 33.1968L10.5874 27.106L11.7017 26.4628L9.70744 23.5544L7.94804 24.5682C7.40362 24.8822 7.06825 25.4627 7.06825 26.0908L7.06823 36.2423C7.06823 36.8705 7.4036 37.4509 7.94802 37.7651C8.22025 37.9221 8.52399 38.0006 8.82782 38.0006C9.13156 38.0006 9.43542 37.922 9.70758 37.7651L39.6204 20.5076C40.1648 20.1935 40.5002 19.613 40.5002 18.9848C40.5002 18.3568 40.1648 17.7762 39.6204 17.4622L30.8524 12.4036C30.8336 12.3924 30.8147 12.3814 30.7955 12.3709L22.0247 7.31072C21.4802 6.99665 20.8096 6.99665 20.2651 7.31072L7.94807 14.4167C7.10648 14.9023 6.81813 15.9776 7.30402 16.8186C7.62995 17.3827 8.22136 17.698 8.82951 17.698C9.12799 17.6979 9.43057 17.622 9.70764 17.4622L21.1448 10.8637L35.2214 18.9848Z" fill="white"/>
</g>
<defs>
<linearGradient id="paint0_linear_527_266057" x1="12.0183" y1="22.5359" x2="19.2714" y2="9.89514" gradientUnits="userSpaceOnUse">
<stop stop-color="white"/>
<stop offset="1" stop-color="white" stop-opacity="0"/>
</linearGradient>
<radialGradient id="paint1_radial_527_266057" cx="0" cy="0" r="1" gradientUnits="userSpaceOnUse" gradientTransform="translate(10.3824 23.9991) rotate(2.72633) scale(3.02962 3.27519)">
<stop stop-color="white"/>
<stop offset="1" stop-color="white" stop-opacity="0"/>
</radialGradient>
<clipPath id="clip0_527_266057">
<rect width="40" height="40" fill="white" transform="translate(0.5)"/>
</clipPath>
</defs>
</svg>
