<svg width="50" height="50" xmlns="http://www.w3.org/2000/svg">
 <g>
  <title>Layer 1</title>
  <g stroke="null">
   <g stroke="null">
    <title stroke="null">Layer 1</title>
    <g stroke="null">
     <g stroke="null" fill="#000">
      <path stroke="null" d="m2.50001,37.76106l0,5.2709c0,2.14019 1.39027,3.50434 3.41509,3.50434c2.12985,0 3.4335,-1.43857 3.4335,-3.64869l0,-5.12655l-1.8027,0l0,5.03026c0,1.2051 -0.57834,1.95243 -1.61158,1.95243c-1.13239,0 -1.63157,-0.85943 -1.63157,-1.85614l0,-5.12655l-1.80274,0zm7.72506,0.07282l0,8.61641l2.87126,0c1.59026,0 2.94152,-0.85112 2.94152,-2.5392c0,-1.76203 -1.46934,-2.1526 -1.46934,-2.1526s1.08801,-0.31714 1.08801,-1.82464c0,-1.50652 -1.3752,-2.09995 -2.56018,-2.09995l-2.87126,0l0,-0.00001zm1.8162,1.63661l0.87161,0c0.60489,0 0.99193,0.33434 0.99193,0.91611c0,0.52039 -0.32837,0.91308 -0.94609,0.91308l-0.91742,0l0,-1.82918l-0.00004,0zm0,3.17704l0.96332,0c0.90585,0 1.21995,0.48828 1.21995,1.07099c0,0.67806 -0.40631,1.07557 -1.12819,1.07557l-1.05502,0l0,-2.14651l-0.00004,-0.00005l-0.00001,0.00001zm4.67891,-4.81426l1.81192,0l0,8.61641l-1.81192,0l0,-8.61641zm19.77066,8.61641l-1.81192,0l0,-8.61641l5.68804,0l0,1.78106l-3.87611,0l0,1.97359l3.53209,0l0,1.44404l-3.53209,0l0,3.41772zm4.54131,-8.61641l0,1.78106l2.33942,0l0,6.83535l1.83487,0l0,-6.83535l2.29356,0l0,-1.78106l-6.46785,0zm-20.43153,5.75138l-1.43942,1.10438s0.49738,1.90894 2.99092,1.90894c1.6605,0 2.88238,-1.01688 2.88238,-2.8046c0,-2.88105 -3.83895,-2.26985 -3.83895,-3.75149c0,-0.38991 0.33043,-0.73435 0.94027,-0.73435c0.97849,0 1.35036,1.00725 1.35036,1.00725l1.43981,-1.06037s-0.56237,-1.57309 -2.71787,-1.57309c-1.77142,0 -2.71241,1.19259 -2.71241,2.42318c0,2.93601 3.72716,2.29876 3.72716,3.8396c0,0.51996 -0.39047,0.90202 -0.99859,0.89764c-1.20487,0 -1.62369,-1.25709 -1.62369,-1.25709l0.00001,0zm9.11268,-5.90731c-2.13377,0 -3.08484,1.21544 -3.08484,1.21544l0.27521,0.28881s-1.38047,1.02896 -1.38047,3.23866c0,2.54266 1.86872,4.17583 4.20011,4.17583c2.70891,0 4.24597,-2.0975 4.24597,-4.45561c0,-2.51456 -1.75481,-4.46313 -4.25601,-4.46313l0.00001,0zm0.0387,1.78858c1.44675,0 2.38532,1.16038 2.38532,2.66704c0,1.49102 -0.92736,2.68361 -2.38532,2.68361c-1.44041,0 -2.38676,-1.0555 -2.38676,-2.45648c0,-1.27504 0.82282,-1.83069 0.82282,-1.83069l-0.29816,-0.3129s0.63446,-0.75059 1.8621,-0.75059zm-5.58379,-36.0639c-9.30591,0 -13.3227,8.69221 -13.3227,8.69221l1.18237,0.88825s-1.48792,2.96926 -1.44675,6.77774c0,7.7746 5.89761,15.09832 14.57936,15.09832c7.88706,0 14.40225,-6.73653 14.40225,-15.0792c0,-10.88075 -8.04069,-16.37733 -15.3945,-16.37733l-0.00004,0zm0.08074,2.65235c7.27069,0 12.91256,6.14828 12.91256,13.29591c0,7.57698 -5.4306,12.84631 -11.75882,12.84631c-4.65741,0 -8.85883,-3.72183 -8.85883,-8.82476c0,-2.9473 1.49284,-5.00211 3.16566,-6.09724l0.2448,0.27875c-0.45778,0.37588 -1.76314,2.57628 -1.76314,4.73899c0,4.01489 3.00034,6.7955 6.78051,6.7955c4.81526,0 8.02669,-4.3098 8.02669,-9.31393c0,-5.82226 -4.89748,-10.7652 -10.79126,-10.7652c-3.25989,0 -6.02666,1.47114 -7.61651,2.7699l-0.24741,-0.23502c2.07994,-3.36535 5.68189,-5.48921 9.90576,-5.48921zm-2.16945,5.56981c3.7611,0 7.4331,2.61103 8.34966,6.31723l-0.33336,0.13255c-1.64569,-2.28053 -4.34231,-4.17049 -7.5267,-4.17049c-5.85954,0 -8.93681,5.58742 -8.48507,10.25407l-0.34506,0.1326s-0.64719,-1.49854 -0.64719,-3.2755c0,-5.14576 4.02696,-9.39053 8.98772,-9.39053l0,0.00005l0,0.00001zm2.48589,6.45796c1.78065,0 3.20471,1.51454 3.20471,3.31242c0,1.48777 -0.91026,2.3695 -0.91026,2.3695l1.0782,0.79115s-1.06916,1.76142 -3.25157,1.76142c-2.08759,0 -3.9339,-1.76817 -3.9339,-4.14593c0,-2.45005 2.00831,-4.08855 3.81285,-4.08855l-0.00004,0l0,-0.00001z" fill="#ffffff"/>
     </g>
    </g>
   </g>
  </g>
 </g>

</svg>