<?xml version="1.0" standalone="no"?>
<!DOCTYPE svg PUBLIC "-//W3C//DTD SVG 20010904//EN"
 "http://www.w3.org/TR/2001/REC-SVG-20010904/DTD/svg10.dtd">
<svg version="1.0" xmlns="http://www.w3.org/2000/svg"
 width="208.000000pt" height="227.000000pt" viewBox="0 0 208.000000 227.000000"
 preserveAspectRatio="xMidYMid meet">
<metadata>
Created by potrace 1.16, written by Peter Selinger 2001-2019
</metadata>
<g transform="translate(0.000000,227.000000) scale(0.100000,-0.100000)"
fill="#000000" stroke="none">
<path d="M1180 1765 c-8 -10 -8 -15 1 -21 8 -5 9 -3 4 6 -5 9 -4 11 4 6 19
-12 2 -27 -19 -16 -22 12 -50 -13 -29 -26 8 -5 9 -3 4 6 -5 9 -4 11 4 6 19
-12 2 -27 -18 -16 -14 7 -22 5 -33 -8 -9 -9 -13 -22 -11 -29 2 -6 -1 -15 -8
-19 -8 -5 -9 -3 -4 6 6 9 4 11 -4 6 -20 -13 -30 -49 -18 -71 9 -18 9 -19 -6
-6 -15 12 -20 7 -42 -43 -14 -32 -22 -62 -19 -68 4 -6 2 -8 -3 -5 -10 6 -47
-38 -48 -55 0 -4 -6 -13 -14 -20 -10 -10 -12 -10 -7 0 4 6 5 12 2 12 -3 0 -24
-33 -47 -72 -24 -40 -64 -96 -91 -125 -30 -33 -48 -60 -47 -75 1 -23 1 -23 8
2 7 20 9 14 15 -35 5 -33 12 -77 16 -97 4 -22 4 -36 -1 -32 -5 3 -9 17 -10 32
0 15 -3 21 -6 14 -8 -20 6 -62 20 -62 21 0 77 -81 77 -112 0 -21 4 -27 13 -22
8 5 8 2 -2 -9 -7 -9 -17 -32 -22 -50 l-8 -32 2 32 c2 18 0 30 -5 27 -34 -22
27 -114 76 -114 14 0 26 -4 26 -9 0 -8 28 -21 54 -25 15 -2 86 -90 85 -106 0
-13 -1 -13 -6 0 -10 26 -35 50 -46 43 -6 -3 -7 -1 -3 6 10 15 -13 43 -27 34
-6 -4 -7 -1 -2 8 5 8 5 11 0 7 -4 -4 -15 -3 -24 3 -9 6 -4 0 12 -14 15 -14 27
-30 27 -35 0 -5 7 -15 15 -22 8 -7 15 -27 16 -44 1 -30 1 -30 10 -6 8 23 8 22
5 -7 -1 -18 0 -31 2 -28 3 3 12 -1 20 -8 13 -10 14 -9 7 2 -5 10 -4 12 4 7 9
-6 9 -11 0 -22 -9 -11 -6 -16 13 -23 31 -11 63 -59 60 -87 -4 -26 37 -55 66
-47 17 4 24 -2 36 -32 22 -51 19 -58 -5 -13 -11 21 -23 38 -28 38 -19 0 -19
-14 -1 -38 11 -13 20 -31 20 -39 0 -8 5 -24 12 -36 6 -12 10 -39 9 -60 -3 -46
13 -69 44 -61 13 3 32 1 43 -5 17 -9 24 -7 36 11 9 12 16 34 16 48 0 17 15 40
44 69 25 24 44 49 43 55 -1 6 9 11 23 12 59 2 66 4 50 14 -13 9 -13 10 0 10
11 0 12 2 3 8 -9 5 -6 12 10 21 20 13 21 13 8 -2 -15 -18 -5 -22 19 -7 8 5 15
26 16 47 2 28 0 33 -6 18 -7 -17 -9 -17 -9 -3 -1 10 -4 17 -8 16 -17 -3 -43
15 -43 31 0 12 2 13 9 3 4 -8 12 -14 17 -14 5 0 8 -4 6 -10 -1 -5 2 -7 7 -4 6
4 6 18 0 39 -5 17 -8 54 -7 82 l1 50 7 -55 7 -55 3 63 c3 83 4 87 17 85 11 -2
49 34 55 52 2 6 6 9 10 8 13 -5 30 39 24 62 -3 13 -2 25 3 27 4 2 12 14 16 28
l7 25 -22 -22 c-17 -16 -23 -34 -24 -67 -1 -28 -4 -39 -9 -30 -5 8 -5 34 -2
58 5 33 13 46 31 54 15 7 25 8 29 1 11 -16 23 0 18 24 -4 18 -3 19 6 7 9 -12
11 -10 11 12 0 14 3 35 7 45 6 16 5 16 -10 4 -9 -7 -21 -28 -26 -45 l-9 -31
-1 30 c0 32 42 75 54 55 8 -13 25 -3 25 13 0 8 -3 8 -9 -1 -6 -10 -10 -8 -14
9 -9 32 44 239 54 213 4 -10 7 -30 7 -44 0 -23 -1 -22 -8 5 l-8 30 -3 -30 c-1
-16 -2 -46 -1 -65 1 -32 0 -33 -8 -10 -7 20 -8 15 -5 -20 3 -34 2 -39 -4 -20
-7 20 -9 21 -9 5 0 -11 3 -29 7 -39 11 -29 52 139 46 189 -4 32 -3 35 4 15 8
-21 9 -22 10 -5 1 23 -12 47 -25 47 -5 0 -8 3 -7 7 1 4 -43 52 -98 107 -54 54
-99 105 -99 114 0 8 -5 22 -10 30 -8 11 -9 7 -4 -15 4 -16 7 -33 8 -36 0 -4
-3 -7 -9 -7 -5 0 -9 4 -7 10 1 5 -4 34 -12 66 -16 60 -14 87 3 31 7 -26 9 -28
10 -11 1 22 -30 62 -50 62 -5 0 -7 5 -3 12 4 7 3 8 -4 4 -15 -9 -242 106 -267
135 l-20 24 25 -21 c26 -23 250 -138 250 -129 0 3 -51 30 -112 61 -70 35 -126
70 -147 92 -18 21 -29 30 -25 22 5 -9 0 -6 -11 6 -25 27 -61 36 -75 19z m18
-57 c-3 -7 -13 -37 -23 -66 l-17 -54 38 -41 c21 -23 65 -69 96 -102 l58 -60
-13 -94 -12 -94 -78 83 c-49 52 -91 109 -113 151 -19 38 -37 69 -40 69 -4 0
-22 -9 -40 -21 -19 -11 -34 -18 -34 -15 0 27 98 197 128 223 39 34 57 42 50
21z m120 -97 c61 -76 73 -100 111 -211 41 -119 46 -128 100 -177 l56 -52 -117
-1 c-69 0 -118 4 -118 10 0 5 5 54 11 110 l11 100 -94 101 -94 101 20 64 c23
75 19 77 114 -45z m-198 95 c0 -2 -8 -10 -17 -17 -16 -13 -17 -12 -4 4 13 16
21 21 21 13z m432 -208 c-9 -37 -66 -188 -71 -188 -3 0 -17 37 -31 83 -24 82
-49 137 -84 189 -18 27 -14 26 85 -22 60 -29 103 -55 101 -62z m-510 50 c-6
-6 -12 -6 -17 3 -6 8 -4 10 5 4 9 -5 10 -1 6 16 -6 21 -6 22 5 6 7 -13 8 -22
1 -29z m-14 -33 c-3 -3 -9 2 -12 12 -6 14 -5 15 5 6 7 -7 10 -15 7 -18z m557
-95 c5 -26 33 -61 113 -143 l107 -108 -90 2 c-97 2 -89 -1 -183 81 l-34 29 33
100 c33 101 40 106 54 39z m-469 3 c11 -28 48 -81 89 -127 38 -43 78 -89 89
-103 l18 -24 -191 1 -192 2 26 44 c14 24 24 48 22 52 -3 4 -7 35 -8 70 l-4 63
55 34 c30 19 60 35 67 35 6 0 19 -21 29 -47z m-123 20 c-7 -17 -38 -34 -47
-26 -8 9 21 40 38 40 8 0 12 -6 9 -14z m831 -255 c-3 -5 -12 -4 -20 3 -7 6
-12 15 -9 19 5 9 -19 32 -26 25 -8 -7 -123 113 -125 131 -2 10 40 -25 91 -76
52 -52 92 -97 89 -102z m-918 160 c5 -7 3 -8 -6 -3 -10 6 -12 4 -7 -8 4 -10 2
-16 -6 -14 -7 1 -11 -6 -10 -17 1 -12 -2 -15 -9 -8 -7 7 -4 19 7 36 20 30 21
30 31 14z m44 -45 c0 -32 -8 -60 -26 -90 -24 -42 -27 -44 -70 -41 -24 2 -44 4
-44 6 0 2 12 15 26 30 14 15 41 55 60 90 20 34 40 60 45 56 5 -3 9 -26 9 -51z
m-86 -21 c3 -5 -1 -9 -9 -9 -8 0 -12 4 -9 9 3 4 7 8 9 8 2 0 6 -4 9 -8z m-35
-59 c-18 -18 -35 -31 -38 -28 -2 3 -14 -3 -25 -12 -12 -10 -2 3 22 28 24 25
50 46 58 46 10 0 4 -12 -17 -34z m338 -95 c-41 -100 -51 -118 -66 -118 -9 0
-21 -4 -26 -9 -6 -6 -58 19 -135 65 l-125 74 179 0 c139 0 177 -3 173 -12z
m343 -53 c-42 -43 -71 -64 -82 -62 -47 13 -78 -58 -38 -86 16 -11 22 -30 27
-81 3 -38 2 -66 -3 -66 -6 0 -66 35 -134 79 -96 60 -126 84 -128 102 -2 13 -7
28 -12 32 -4 5 6 40 22 78 l31 69 191 0 190 0 -64 -65z m254 23 c-251 -280
-286 -317 -302 -311 -26 10 -32 24 -32 76 0 34 6 53 21 68 13 13 19 28 15 42
-4 17 10 39 60 95 l66 72 105 0 105 0 -38 -42z m-823 -54 c137 -82 139 -88 55
-173 -73 -73 -96 -76 -96 -12 0 34 -7 46 -50 88 -47 46 -50 51 -56 117 l-7 68
24 -12 c13 -8 72 -42 130 -76z m842 -31 c-28 -111 -49 -142 -92 -135 -23 3
-33 -2 -47 -23 -16 -25 -16 -27 3 -53 31 -43 15 -107 -38 -154 -23 -21 -45
-38 -49 -38 -4 0 -20 19 -36 41 -19 28 -29 54 -29 81 0 38 9 50 153 209 84 93
155 169 156 169 2 0 -7 -44 -21 -97z m54 25 c-3 -8 -6 -5 -6 6 -1 11 2 17 5
13 3 -3 4 -12 1 -19z m-393 -61 c8 -12 7 -21 -5 -32 -21 -21 -49 -9 -49 20 0
36 34 44 54 12z m-319 -17 c0 -18 -6 -26 -23 -28 -24 -4 -38 18 -28 44 3 9 15
14 28 12 17 -2 23 -10 23 -28z m-261 -49 c9 -7 16 -19 16 -25 0 -6 -5 -3 -11
7 -6 9 -14 15 -18 12 -5 -2 -14 2 -20 9 -16 19 10 16 33 -3z m236 -172 c0 -99
-4 -169 -9 -169 -6 0 -40 36 -78 80 -87 103 -87 119 -1 207 35 35 66 59 74 56
11 -4 14 -41 14 -174z m175 102 c161 -104 161 -103 9 -200 -64 -41 -126 -75
-138 -75 -20 -1 -21 5 -29 164 -4 90 -5 170 -3 177 10 24 41 12 161 -66z
m-408 7 c-3 -8 -6 -5 -6 6 -1 11 2 17 5 13 3 -3 4 -12 1 -19z m843 -3 c10 -12
10 -18 0 -30 -7 -8 -18 -15 -25 -15 -19 0 -36 25 -29 44 8 20 38 21 54 1z
m-782 -84 c-4 -31 -35 -36 -52 -8 -9 14 -7 21 7 32 27 19 49 8 45 -24z m547
-21 c0 -20 -5 -25 -25 -25 -28 0 -41 32 -18 46 23 15 43 5 43 -21z m-578 -40
c23 -7 24 -8 7 -9 -12 -1 -30 7 -41 17 -10 9 -13 13 -7 9 7 -5 25 -12 41 -17z
m52 -4 c21 -22 21 -24 5 -22 -11 2 -19 8 -19 15 0 6 -7 16 -15 21 -8 5 -10 10
-4 10 6 0 21 -11 33 -24z m748 -8 c-3 -7 -5 -2 -5 12 0 14 2 19 5 13 2 -7 2
-19 0 -25z m-267 0 c0 -14 -99 -486 -107 -508 -3 -9 -17 17 -34 59 -21 52 -27
77 -19 85 18 18 11 55 -15 72 -13 8 -29 12 -36 8 -7 -4 -24 8 -43 31 -30 35
-31 41 -22 73 9 30 29 47 131 113 119 78 145 90 145 67z m84 -53 l36 -55 -6
-87 c-6 -76 -11 -91 -32 -111 -17 -16 -22 -30 -18 -45 4 -19 -10 -38 -74 -102
-44 -44 -80 -76 -80 -72 0 7 92 446 105 505 9 36 30 26 69 -33z m147 22 c-6
-8 -9 -16 -6 -19 3 -3 -5 -13 -17 -24 -18 -15 -20 -16 -9 -1 7 9 10 17 5 17
-14 0 -54 -43 -55 -59 0 -12 -2 -13 -6 -3 -5 14 73 102 90 102 5 0 4 -6 -2
-13z m-526 -137 c0 -33 -40 -41 -50 -11 -9 28 2 43 28 39 16 -2 22 -10 22 -28z
m432 -47 c-2 -16 -4 -3 -4 27 0 30 2 43 4 28 2 -16 2 -40 0 -55z m-408 -44
c24 -28 31 -43 23 -52 -5 -6 -12 -21 -16 -32 -3 -11 -3 -3 0 18 4 33 1 42 -29
72 -19 19 -30 35 -23 34 6 0 26 -18 45 -40z m96 -69 c0 -20 -5 -25 -25 -25
-28 0 -41 32 -18 46 23 15 43 5 43 -21z m313 -24 c-4 -26 -37 -28 -52 -3 -9
15 -7 21 8 32 24 18 48 2 44 -29z m-38 -46 c0 -5 -6 -10 -13 -10 -16 0 -50
-34 -42 -41 7 -8 -83 -92 -101 -95 -10 -2 18 33 62 77 76 77 94 90 94 69z m7
-26 c-3 -3 -12 -4 -19 -1 -8 3 -5 6 6 6 11 1 17 -2 13 -5z m-267 -54 c0 13 1
13 10 0 5 -8 10 -19 10 -25 0 -5 -5 -3 -10 5 -9 13 -10 13 -10 0 0 -13 -1 -13
-10 0 -5 8 -10 20 -10 25 0 6 5 3 10 -5 9 -13 10 -13 10 0z m30 -44 c0 -2 -8
-10 -17 -17 -16 -13 -17 -12 -4 4 13 16 21 21 21 13z m45 -46 c0 -18 -6 -26
-23 -28 -24 -4 -38 18 -28 44 3 9 15 14 28 12 17 -2 23 -10 23 -28z m42 -22
c-3 -7 -5 -2 -5 12 0 14 2 19 5 13 2 -7 2 -19 0 -25z m-7 -24 c0 -8 -19 -13
-24 -6 -3 5 1 9 9 9 8 0 15 -2 15 -3z"/>
<path d="M960 1435 c-11 -13 -10 -14 4 -9 9 3 16 10 16 15 0 13 -6 11 -20 -6z"/>
<path d="M1705 1300 c33 -33 62 -60 64 -60 3 0 -21 27 -54 60 -33 33 -62 60
-64 60 -3 0 21 -27 54 -60z"/>
<path d="M809 1223 l-24 -28 28 24 c15 14 27 26 27 28 0 8 -8 1 -31 -24z"/>
<path d="M1366 224 c-11 -30 -6 -37 14 -19 11 10 17 22 14 26 -8 14 -21 11
-28 -7z"/>
<path d="M1420 195 c-24 -25 -42 -45 -39 -45 3 0 25 20 49 45 24 25 42 45 39
45 -3 0 -25 -20 -49 -45z"/>
<path d="M743 1075 c0 -22 2 -30 4 -17 2 12 2 30 0 40 -3 9 -5 -1 -4 -23z"/>
<path d="M1791 934 c0 -11 3 -14 6 -6 3 7 2 16 -1 19 -3 4 -6 -2 -5 -13z"/>
<path d="M1243 125 c0 -22 2 -30 4 -17 2 12 2 30 0 40 -3 9 -5 -1 -4 -23z"/>
<path d="M1295 50 c-8 -13 20 -24 41 -16 20 8 9 26 -16 26 -10 0 -22 -5 -25
-10z m38 -7 c-7 -2 -19 -2 -25 0 -7 3 -2 5 12 5 14 0 19 -2 13 -5z"/>
</g>
</svg>
