<?xml version="1.0" standalone="no"?>
<!DOCTYPE svg PUBLIC "-//W3C//DTD SVG 20010904//EN"
 "http://www.w3.org/TR/2001/REC-SVG-20010904/DTD/svg10.dtd">
<svg version="1.0" xmlns="http://www.w3.org/2000/svg"
 width="180.000000pt" height="180.000000pt" viewBox="0 0 180.000000 180.000000"
 preserveAspectRatio="xMidYMid meet">
<metadata>
Created by potrace 1.16, written by Peter Selinger 2001-2019
</metadata>
<g transform="translate(0.000000,180.000000) scale(0.100000,-0.100000)"
fill="#000000" stroke="none">
<path d="M0 1206 c1 -458 3 -596 13 -599 9 -4 9 -6 0 -6 -9 -1 -12 -73 -13
-301 l0 -300 900 0 900 0 0 900 0 900 -900 0 -900 0 0 -594z m910 -240 c0 -3
-4 -8 -10 -11 -5 -3 -10 -1 -10 4 0 6 5 11 10 11 6 0 10 -2 10 -4z m-51 -88
c-1 -38 -3 -46 -8 -28 -7 24 -3 80 5 80 2 0 4 -24 3 -52z m91 42 c0 -5 -5 -10
-11 -10 -5 0 -7 5 -4 10 3 6 8 10 11 10 2 0 4 -4 4 -10z m-123 -6 c-3 -3 -12
-4 -19 -1 -8 3 -5 6 6 6 11 1 17 -2 13 -5z m163 -4 c0 -5 -7 -7 -15 -4 -8 4
-15 8 -15 10 0 2 7 4 15 4 8 0 15 -4 15 -10z m-90 -145 l-5 -40 -3 38 c-3 30
-7 37 -25 38 -22 2 -22 2 1 6 19 4 22 11 24 51 l1 47 6 -50 c3 -27 4 -68 1
-90z m-75 116 c3 -5 1 -12 -5 -16 -5 -3 -10 1 -10 9 0 18 6 21 15 7z m154 -20
c0 -10 -2 -11 -6 -3 -7 17 -33 15 -33 -3 0 -8 9 -15 20 -15 11 0 20 -3 20 -7
0 -5 -11 -8 -25 -8 -21 0 -25 5 -25 31 0 28 3 31 25 26 15 -2 25 -11 24 -21z
m-142 -27 c-3 -3 -12 -4 -19 -1 -8 3 -5 6 6 6 11 1 17 -2 13 -5z m-517 -45 c0
-6 -4 -7 -10 -4 -5 3 -10 11 -10 16 0 6 5 7 10 4 6 -3 10 -11 10 -16z m50 11
c0 -5 -2 -10 -4 -10 -3 0 -8 5 -11 10 -3 6 -1 10 4 10 6 0 11 -4 11 -10z m460
0 c0 -5 -5 -10 -11 -10 -5 0 -7 5 -4 10 3 6 8 10 11 10 2 0 4 -4 4 -10z m110
0 c0 -5 -2 -10 -4 -10 -3 0 -8 5 -11 10 -3 6 -1 10 4 10 6 0 11 -4 11 -10z
m-680 -21 c0 -6 -4 -7 -10 -4 -5 3 -10 11 -10 16 0 6 5 7 10 4 6 -3 10 -11 10
-16z m371 -2 c-10 -9 -11 -8 -5 6 3 10 9 15 12 12 3 -3 0 -11 -7 -18z m829 19
c0 -3 -4 -8 -10 -11 -5 -3 -10 -1 -10 4 0 6 5 11 10 11 6 0 10 -2 10 -4z
m-1021 -79 c13 -15 29 -26 36 -24 6 3 12 0 12 -7 0 -8 -9 -11 -24 -8 -12 2
-21 8 -18 12 3 5 -8 19 -23 32 -34 28 -58 62 -27 38 11 -8 30 -28 44 -43z
m528 -9 c-2 -13 -4 -3 -4 22 0 25 2 35 4 23 2 -13 2 -33 0 -45z m-502 34 c-3
-3 -11 0 -18 7 -9 10 -8 11 6 5 10 -3 15 -9 12 -12z m50 0 c-3 -3 -11 0 -18 7
-9 10 -8 11 6 5 10 -3 15 -9 12 -12z m136 0 c-7 -2 0 -12 18 -23 35 -21 41
-23 41 -11 0 5 -10 14 -22 21 -17 9 -18 10 -3 5 11 -4 28 -7 38 -8 21 0 22
-12 3 -19 -9 -4 -12 -14 -9 -26 3 -13 10 -18 21 -14 10 4 13 2 8 -5 -4 -7 -2
-12 3 -12 6 0 12 10 12 23 l2 22 4 -23 c4 -19 7 -21 19 -11 11 9 14 8 14 -5 0
-9 5 -16 11 -16 6 0 9 7 6 15 -4 8 -2 17 3 20 6 4 10 -3 10 -14 0 -11 5 -23
12 -27 7 -4 8 -3 4 4 -4 7 -1 12 9 12 9 0 13 -4 10 -10 -3 -5 0 -10 7 -10 8 0
14 9 15 20 1 14 -5 20 -20 21 -20 1 -20 2 3 8 14 4 36 5 50 2 24 -5 24 -6 3
-9 -29 -4 -30 -22 -2 -22 11 0 18 -4 15 -9 -3 -4 8 -8 24 -7 27 1 30 4 30 34
0 18 4 31 9 28 4 -3 6 -18 3 -32 -3 -19 -1 -25 7 -20 6 4 11 14 11 21 0 9 6
12 17 8 12 -5 15 -2 10 10 -9 23 2 21 24 -5 21 -24 24 -18 8 15 -9 19 -8 19
12 -3 l22 -25 -8 24 c-5 18 -4 22 6 16 9 -6 11 -2 6 16 -6 23 -5 23 8 5 15
-20 15 -20 15 0 0 10 4 15 8 9 4 -5 13 -11 21 -13 12 -3 12 0 2 12 -10 12 -9
14 6 11 10 -2 21 -4 25 -4 13 -2 4 -50 -9 -55 -7 -3 -13 -13 -13 -22 0 -11 -5
-14 -16 -10 -8 3 -26 3 -39 0 -22 -5 -23 -8 -9 -21 8 -8 21 -12 30 -9 9 4 12
2 8 -5 -4 -6 0 -15 7 -20 7 -4 11 -11 7 -14 -3 -3 -13 1 -21 10 -9 8 -23 15
-32 15 -10 0 -13 5 -9 12 5 8 -2 9 -26 5 -18 -4 -39 -7 -47 -7 -9 0 -13 -6 -9
-15 4 -12 -5 -15 -54 -15 -65 0 -85 -19 -22 -21 l37 -2 -40 -6 c-22 -3 -51 -4
-65 -1 -24 4 -24 5 -2 8 38 6 24 22 -20 24 l-43 1 45 7 45 7 -45 1 c-51 2 -84
-12 -62 -27 11 -6 9 -10 -7 -14 -12 -3 -24 -1 -27 4 -3 5 0 9 5 9 19 0 12 20
-6 21 -12 1 -9 4 7 9 23 7 23 8 -13 15 -43 8 -102 -10 -78 -24 9 -6 4 -8 -13
-8 -15 0 -29 3 -32 8 -3 5 2 9 11 9 15 0 43 20 48 35 4 13 -29 23 -56 18 -21
-4 -25 -8 -15 -14 8 -6 0 -7 -19 -3 -22 4 -33 3 -33 -5 0 -6 -9 -11 -19 -11
-24 0 -36 -16 -19 -24 7 -3 3 -3 -9 -1 -15 4 -26 -1 -37 -17 -9 -12 -16 -18
-16 -13 0 4 -12 -2 -27 -16 -23 -20 -25 -20 -9 -2 10 12 15 26 12 31 -3 6 2 8
13 5 25 -6 36 14 19 34 -12 15 -11 15 9 2 18 -11 25 -11 35 -1 9 9 8 15 -8 27
-17 13 -16 13 15 2 26 -9 35 -9 38 0 2 7 11 9 19 6 8 -3 14 0 14 6 0 6 7 8 15
5 8 -4 15 -1 15 4 0 6 -9 13 -19 17 -11 3 -18 13 -16 23 2 9 4 20 4 24 1 9 33
15 50 9 11 -3 12 -6 2 -9z m-284 -9 c-9 -8 32 -53 49 -53 6 0 14 -6 17 -14 10
-26 -27 -5 -62 35 -27 32 -30 39 -15 39 9 0 14 -3 11 -7z m893 1 c0 -8 -19
-13 -24 -6 -3 5 1 9 9 9 8 0 15 -2 15 -3z m169 3 c-2 -1 -12 -9 -22 -16 -15
-12 -17 -12 -11 3 3 9 13 16 22 16 8 0 13 -1 11 -3z m-1134 -17 c3 -5 1 -10
-4 -10 -6 0 -11 5 -11 10 0 6 2 10 4 10 3 0 8 -4 11 -10z m710 0 c3 -5 1 -10
-4 -10 -6 0 -11 5 -11 10 0 6 2 10 4 10 3 0 8 -4 11 -10z m-100 -10 c3 -5 -1
-10 -10 -10 -9 0 -13 5 -10 10 3 6 8 10 10 10 2 0 7 -4 10 -10z m-365 -26 c0
-2 -9 0 -20 6 -11 6 -20 13 -20 16 0 2 9 0 20 -6 11 -6 20 -13 20 -16z m40 17
c0 -5 -9 -7 -20 -4 -11 3 -20 7 -20 9 0 2 9 4 20 4 11 0 20 -4 20 -9z m250 -1
c0 -5 -5 -10 -11 -10 -5 0 -7 5 -4 10 3 6 8 10 11 10 2 0 4 -4 4 -10z m415 -8
c-3 -3 -11 0 -18 7 -9 10 -8 11 6 5 10 -3 15 -9 12 -12z m-445 -2 c0 -5 -5
-10 -11 -10 -5 0 -7 5 -4 10 3 6 8 10 11 10 2 0 4 -4 4 -10z m519 6 c-2 -2
-14 -9 -26 -15 -19 -10 -22 -9 -17 4 4 8 15 15 27 15 11 0 18 -2 16 -4z m42
-24 c-7 -2 -18 1 -23 6 -8 8 -4 9 13 5 13 -4 18 -8 10 -11z m-144 -12 c2 -23
-12 -27 -20 -6 -3 8 -1 17 6 20 7 2 12 5 12 5 1 1 1 -8 2 -19z m-833 -13 c-4
-11 -44 -19 -44 -10 0 3 33 18 47 22 1 1 0 -5 -3 -12z m1033 7 c-3 -3 -12 -4
-19 -1 -8 3 -5 6 6 6 11 1 17 -2 13 -5z m-137 -22 c0 -4 -9 -8 -20 -9 -11 -1
-18 2 -15 8 7 11 35 12 35 1z m35 -30 c-3 -3 -11 0 -18 7 -9 10 -8 11 6 5 10
-3 15 -9 12 -12z m-238 2 c-3 -3 -12 -4 -19 -1 -8 3 -5 6 6 6 11 1 17 -2 13
-5z m-340 -20 c-3 -3 -12 -4 -19 -1 -8 3 -5 6 6 6 11 1 17 -2 13 -5z m386 -1
c-7 -2 -19 -2 -25 0 -7 3 -2 5 12 5 14 0 19 -2 13 -5z m-476 -10 c16 -6 15 -8
-7 -13 -16 -4 -24 -13 -23 -24 0 -9 -2 -15 -5 -12 -3 3 -13 -1 -23 -10 -15
-14 -17 -14 -15 3 0 10 9 21 20 26 11 4 16 13 12 22 -6 16 11 20 41 8z m423 0
c-8 -3 -17 -9 -20 -13 -3 -4 -11 -2 -18 6 -11 12 -8 14 20 13 18 0 26 -3 18
-6z m135 -12 c-3 -5 5 -17 17 -25 15 -10 17 -16 8 -16 -8 0 -23 12 -33 25 -16
22 -16 25 -2 25 9 0 14 -4 10 -9z m-435 -21 c0 -3 -5 -12 -10 -20 -8 -13 -10
-13 -10 2 0 9 -8 19 -17 21 -10 3 -6 4 10 4 15 -1 27 -4 27 -7z m78 -7 c-10
-2 -28 -2 -40 0 -13 2 -5 4 17 4 22 1 32 -1 23 -4z m67 -3 c3 -5 1 -10 -4 -10
-6 0 -11 5 -11 10 0 6 2 10 4 10 3 0 8 -4 11 -10z m143 3 c-10 -2 -28 -2 -40
0 -13 2 -5 4 17 4 22 1 32 -1 23 -4z m-651 -9 c-3 -3 -12 -4 -19 -1 -8 3 -5 6
6 6 11 1 17 -2 13 -5z m373 -28 c0 -2 -9 -6 -20 -9 -11 -3 -20 -1 -20 4 0 5 9
9 20 9 11 0 20 -2 20 -4z m300 -6 c0 -5 -2 -10 -4 -10 -3 0 -8 5 -11 10 -3 6
-1 10 4 10 6 0 11 -4 11 -10z m-142 -7 c-16 -2 -40 -2 -55 0 -16 2 -3 4 27 4
30 0 43 -2 28 -4z m845 -118 c-3 -9 -8 -14 -10 -11 -3 3 -2 9 2 15 9 16 15 13
8 -4z m-1208 -5 c19 -8 19 -9 -2 -9 -12 -1 -25 4 -28 9 -7 12 2 12 30 0z
m1030 1 c3 -6 -3 -9 -14 -8 -11 0 -17 5 -15 9 7 11 22 10 29 -1z"/>
<path d="M1040 660 c-8 -5 -11 -13 -6 -17 5 -4 11 -2 13 5 3 6 9 10 14 6 5 -3
9 0 9 5 0 13 -10 14 -30 1z"/>
<path d="M933 603 c15 -2 39 -2 55 0 15 2 2 4 -28 4 -30 0 -43 -2 -27 -4z"/>
</g>
</svg>
